<svg xmlns="http://www.w3.org/2000/svg" xmlns:xlink="http://www.w3.org/1999/xlink" width="86" height="85" viewBox="0 0 86 85"><defs><style>.a{fill:#fff;stroke:#707070;}.b{clip-path:url(#a);}.c{fill:#0052b4;}.d{fill:#f0f0f0;}.e{fill:#d80027;}</style><clipPath id="a"><ellipse class="a" cx="43" cy="42.5" rx="43" ry="42.5" transform="translate(-0.459 -0.318)"/></clipPath></defs><g class="b" transform="translate(0.459 0.318)"><g transform="translate(-14.076 -0.656)"><rect class="c" width="128" height="85" transform="translate(-0.382 0.338)"/><g transform="translate(0.477 0.001)"><path class="d" d="M83.773,95.885l.2-.23c-.068.077-.137.153-.205.23Z" transform="translate(-27.789 -53.116)"/><path class="d" d="M65.418,111.721l2.746,5.742,6.2-1.433-2.777,5.727,4.987,3.955-6.209,1.4.017,6.365-4.966-3.982-4.965,3.982.017-6.365-6.209-1.4,4.987-3.955-2.777-5.727,6.2,1.433Z" transform="translate(-18 -58.445)"/><path class="d" d="M142.512,122.4l1.31,2.739,2.958-.684-1.325,2.732,2.379,1.887-2.962.667.008,3.036-2.368-1.9-2.368,1.9.008-3.036-2.961-.667,2.378-1.887-1.324-2.732,2.958.684Z" transform="translate(-45.509 -61.986)"/><path class="d" d="M124.278,78.918l1.31,2.739,2.958-.684-1.325,2.732,2.378,1.887-2.961.667.008,3.036-2.368-1.9-2.368,1.9.008-3.036-2.962-.667,2.378-1.887-1.324-2.732,2.958.684Z" transform="translate(-39.461 -47.564)"/><path class="d" d="M142.512,54.074l1.31,2.739,2.958-.684-1.325,2.732,2.378,1.886-2.961.668.008,3.036-2.368-1.9-2.368,1.9.008-3.036-2.961-.668,2.378-1.886-1.324-2.732,2.958.684Z" transform="translate(-45.509 -39.322)"/><path class="d" d="M158.439,72.707l1.31,2.739,2.958-.684-1.324,2.732,2.378,1.886-2.962.668.008,3.036-2.368-1.9-2.368,1.9.008-3.036-2.961-.668,2.378-1.886-1.325-2.732,2.958.684Z" transform="translate(-50.793 -45.503)"/><path class="d" d="M147.526,94.446l1.03,3.171h3.334l-2.7,1.96,1.03,3.171-2.7-1.959-2.7,1.959,1.03-3.171-2.7-1.96H146.5Z" transform="translate(-47.49 -52.715)"/><path class="d" d="M64.155,32v7.657l-11.319,6.29H64.155V60.822H49.343l14.811,8.229v5.718H57.468L39.051,64.537V74.769H25.1V62.6L3.194,74.769H0V67.112l11.319-6.29H0V45.946H14.811L0,37.715V32H6.686L25.1,42.231V32H39.051V44.172L60.961,32Z" transform="translate(0 -32)"/></g><path class="e" d="M36.087,32H28.068V49.374H0v8.019H28.068V74.768h8.019V57.393H64.155V49.374H36.087Z" transform="translate(0.477 -31.999)"/><path class="c" d="M58.435,75.129l25.1,13.947V85.132l-18.005-10Z" transform="translate(-18.907 -46.306)"/><path class="d" d="M58.435,75.129l25.1,13.947V85.132l-18.005-10Z" transform="translate(-18.907 -46.306)"/><g transform="translate(0.477 28.823)"><path class="e" d="M58.435,75.129l25.1,13.947V85.132l-18.005-10Z" transform="translate(-19.384 -75.129)"/><path class="e" d="M18,75.129l-18,10v3.944H0L25.1,75.129Z" transform="translate(0 -75.129)"/></g><path class="c" d="M25.1,45.945,0,32v3.944l18.005,10Z" transform="translate(0.477 -31.999)"/><path class="d" d="M25.1,45.945,0,32v3.944l18.005,10Z" transform="translate(0.477 -31.999)"/><g transform="translate(0.477 0)"><path class="e" d="M25.1,45.945,0,32v3.944l18.005,10Z" transform="translate(0 -31.999)"/><path class="e" d="M65.534,45.945l18-10V32h0l-25.1,13.947Z" transform="translate(-19.384 -31.999)"/></g></g></g></svg>