<svg xmlns="http://www.w3.org/2000/svg" xmlns:xlink="http://www.w3.org/1999/xlink" width="84" height="86" viewBox="0 0 84 86"><defs><style>.a{fill:#fff;stroke:#707070;}.b{clip-path:url(#a);}.c{fill:#41479b;}.d{fill:#ffe15a;}</style><clipPath id="a"><ellipse class="a" cx="42" cy="43" rx="42" ry="43" transform="translate(0.459 0.153)"/></clipPath></defs><g class="b" transform="translate(-0.459 -0.153)"><g transform="translate(-23.378 0.317)"><path class="c" d="M128.311,118.644H2.251A2.251,2.251,0,0,1,0,116.393V35.355A2.251,2.251,0,0,1,2.251,33.1h126.06a2.251,2.251,0,0,1,2.251,2.251v81.039A2.252,2.252,0,0,1,128.311,118.644Z" transform="translate(0 -33.103)"/><g transform="translate(32.276 9.532)"><path class="d" d="M95.056,47.383l.9,2.706,2.853.022a.384.384,0,0,1,.225.694l-2.3,1.695.86,2.72a.384.384,0,0,1-.59.429L94.691,53.99,92.37,55.649a.384.384,0,0,1-.59-.429l.86-2.72-2.3-1.695a.384.384,0,0,1,.225-.694l2.853-.022.9-2.706A.384.384,0,0,1,95.056,47.383Z" transform="translate(-61.136 -47.121)"/><path class="d" d="M95.056,132.832l.9,2.706,2.853.022a.384.384,0,0,1,.225.694l-2.3,1.695.86,2.72a.384.384,0,0,1-.59.429l-2.321-1.659L92.37,141.1a.384.384,0,0,1-.59-.429l.86-2.72-2.3-1.695a.384.384,0,0,1,.225-.694l2.853-.022.9-2.706A.384.384,0,0,1,95.056,132.832Z" transform="translate(-61.136 -74.463)"/><path class="d" d="M137.78,90.108l.9,2.706,2.853.022a.384.384,0,0,1,.225.694l-2.3,1.695.86,2.72a.384.384,0,0,1-.59.429l-2.321-1.659-2.321,1.659a.384.384,0,0,1-.59-.429l.86-2.72-2.3-1.695a.384.384,0,0,1,.225-.694l2.853-.022.9-2.706A.384.384,0,0,1,137.78,90.108Z" transform="translate(-74.807 -60.792)"/><path class="d" d="M52.331,90.108l.9,2.706,2.853.022a.384.384,0,0,1,.225.694l-2.3,1.695.86,2.72a.384.384,0,0,1-.59.429l-2.321-1.659-2.321,1.659a.384.384,0,0,1-.59-.429l.86-2.72-2.3-1.695a.384.384,0,0,1,.225-.694l2.853-.022.9-2.706A.384.384,0,0,1,52.331,90.108Z" transform="translate(-47.464 -60.792)"/><path class="d" d="M58.745,67.8l.9,2.706,2.853.022a.384.384,0,0,1,.225.694l-2.3,1.695.86,2.72a.384.384,0,0,1-.59.429L58.381,74.4,56.06,76.062a.384.384,0,0,1-.59-.429l.86-2.72-2.3-1.695a.384.384,0,0,1,.225-.694l2.853-.022.9-2.706A.384.384,0,0,1,58.745,67.8Z" transform="translate(-49.517 -53.653)"/><path class="d" d="M132.746,110.521l.9,2.706,2.853.022a.384.384,0,0,1,.225.694l-2.3,1.695.86,2.72a.384.384,0,0,1-.59.429l-2.321-1.659-2.321,1.659a.384.384,0,0,1-.59-.429l.86-2.72-2.3-1.695a.384.384,0,0,1,.225-.694l2.853-.022.9-2.706A.384.384,0,0,1,132.746,110.521Z" transform="translate(-73.196 -67.324)"/><path class="d" d="M117.108,52.158l.9,2.706,2.853.022a.384.384,0,0,1,.225.694l-2.3,1.695.86,2.72a.384.384,0,0,1-.59.429l-2.321-1.659-2.321,1.659a.384.384,0,0,1-.59-.429l.86-2.72-2.3-1.695a.384.384,0,0,1,.225-.694l2.853-.022.9-2.706A.384.384,0,0,1,117.108,52.158Z" transform="translate(-68.192 -48.649)"/><path class="d" d="M74.383,126.159l.9,2.706,2.853.022a.384.384,0,0,1,.225.694l-2.3,1.695.86,2.72a.384.384,0,0,1-.59.429l-2.321-1.659L71.7,134.424a.384.384,0,0,1-.59-.429l.86-2.72-2.3-1.695a.384.384,0,0,1,.225-.694l2.853-.022.9-2.706A.384.384,0,0,1,74.383,126.159Z" transform="translate(-54.521 -72.328)"/><path class="d" d="M132.016,67.8l-.9,2.706-2.853.022a.384.384,0,0,0-.225.694l2.3,1.695-.86,2.72a.384.384,0,0,0,.59.429l2.321-1.659,2.321,1.659a.384.384,0,0,0,.59-.429l-.86-2.72,2.3-1.695a.384.384,0,0,0-.225-.694l-2.853-.022-.9-2.706A.384.384,0,0,0,132.016,67.8Z" transform="translate(-73.196 -53.653)"/><path class="d" d="M58.016,110.521l-.9,2.706-2.853.022a.384.384,0,0,0-.225.694l2.3,1.695-.86,2.72a.384.384,0,0,0,.59.429l2.321-1.659,2.321,1.659a.384.384,0,0,0,.59-.429l-.86-2.72,2.3-1.695a.384.384,0,0,0-.225-.694l-2.853-.022-.9-2.706A.384.384,0,0,0,58.016,110.521Z" transform="translate(-49.517 -67.324)"/><path class="d" d="M73.654,52.158l-.9,2.706-2.853.022a.384.384,0,0,0-.225.694l2.3,1.695L71.108,60a.384.384,0,0,0,.59.429l2.321-1.659,2.321,1.659A.384.384,0,0,0,76.93,60l-.86-2.72,2.3-1.695a.384.384,0,0,0-.225-.694l-2.853-.022-.9-2.706A.384.384,0,0,0,73.654,52.158Z" transform="translate(-54.521 -48.649)"/><path class="d" d="M116.378,126.159l-.9,2.706-2.853.022a.384.384,0,0,0-.225.694l2.3,1.695-.86,2.72a.384.384,0,0,0,.59.429l2.321-1.659,2.321,1.659a.384.384,0,0,0,.59-.429l-.86-2.72,2.3-1.695a.384.384,0,0,0-.225-.694l-2.853-.022-.9-2.706A.384.384,0,0,0,116.378,126.159Z" transform="translate(-68.192 -72.328)"/></g></g></g></svg>