<svg xmlns="http://www.w3.org/2000/svg" width="108.734" height="108.734" viewBox="0 0 108.734 108.734"><defs><style>.a{opacity:0.65;}.b{fill:#212121;}</style></defs><g class="a"><g transform="translate(61.616 59.804)"><path class="b" d="M301.006,281.6a10.873,10.873,0,1,0,10.873,10.873A10.884,10.884,0,0,0,301.006,281.6Zm0,18.122a7.249,7.249,0,1,1,7.249-7.249A7.256,7.256,0,0,1,301.006,299.722Z" transform="translate(-290.133 -281.6)"/></g><g transform="translate(65.241 77.926)"><path class="b" d="M318.073,366.933v7.488l-2.62-1.747a1.8,1.8,0,0,0-2.01,0l-2.619,1.747v-7.488H307.2v10.873a1.813,1.813,0,0,0,2.818,1.508l4.431-2.954,4.431,2.954a1.812,1.812,0,0,0,2.818-1.508V366.933Z" transform="translate(-307.2 -366.933)"/></g><g transform="translate(41.682 18.122)"><rect class="b" width="23.559" height="3.625"/></g><g transform="translate(25.371 28.996)"><rect class="b" width="57.992" height="3.625"/></g><g transform="translate(25.371 39.869)"><rect class="b" width="39.869" height="3.625"/></g><g transform="translate(72.489 39.869)"><rect class="b" width="10.873" height="3.625"/></g><g transform="translate(25.371 50.743)"><rect class="b" width="57.992" height="3.625"/></g><g transform="translate(25.371 61.616)"><rect class="b" width="21.747" height="3.625"/></g><g transform="translate(25.371 70.677)"><rect class="b" width="9.061" height="3.625"/></g><g transform="translate(41.682 70.677)"><rect class="b" width="5.437" height="3.625"/></g><g transform="translate(90.612)"><path class="b" d="M435.727,0a9.072,9.072,0,0,0-9.061,9.061v3.625a1.812,1.812,0,0,0,1.812,1.812h14.5a1.812,1.812,0,0,0,1.812-1.812V9.061A9.071,9.071,0,0,0,435.727,0Zm5.437,10.873H430.291V9.061a5.437,5.437,0,0,1,10.873,0Z" transform="translate(-426.666)"/></g><g transform="translate(14.498)"><path class="b" d="M153.442,0H77.328a9.071,9.071,0,0,0-9.061,9.061V96.049h3.625V9.061a5.443,5.443,0,0,1,5.437-5.437H146.2a9.014,9.014,0,0,0-1.816,5.437V99.673a5.443,5.443,0,0,1-5.437,5.437H70.079v3.624h68.865a9.072,9.072,0,0,0,9.061-9.061V9.061a5.443,5.443,0,0,1,5.437-5.437,1.812,1.812,0,1,0,0-3.625Z" transform="translate(-68.267)"/></g><g transform="translate(0 94.236)"><path class="b" d="M85.175,454.606a5.443,5.443,0,0,1-5.437-5.437v-3.625a1.81,1.81,0,0,0-1.812-1.812H1.812A1.812,1.812,0,0,0,0,445.545v3.625a9.071,9.071,0,0,0,9.061,9.061H85.175a1.812,1.812,0,0,0,0-3.625Zm-76.114,0a5.443,5.443,0,0,1-5.437-5.437v-1.812H76.114v1.812a9.014,9.014,0,0,0,1.816,5.437Z" transform="translate(0 -443.733)"/></g></g></svg>