<svg xmlns="http://www.w3.org/2000/svg" width="106.34" height="113.697" viewBox="0 0 106.34 113.697"><defs><style>.a{opacity:0.65;}.b{fill:#212121;}</style></defs><g class="a"><g transform="translate(45.986 99.33)"><g transform="translate(0)"><path class="b" d="M225.317,447.3a1.665,1.665,0,0,0-1.665,1.666v1.84a1.665,1.665,0,0,0,3.331,0v-1.84A1.665,1.665,0,0,0,225.317,447.3Z" transform="translate(-223.651 -447.3)"/></g></g><g transform="translate(57.022 99.33)"><path class="b" d="M275.014,447.3a1.665,1.665,0,0,0-1.665,1.666v1.84a1.666,1.666,0,0,0,3.331,0v-1.84A1.665,1.665,0,0,0,275.014,447.3Z" transform="translate(-273.349 -447.3)"/></g><g transform="translate(47.825 4.599)"><path class="b" d="M240.955,20.709a1.665,1.665,0,0,0-1.665,1.665v2.933h-4.026V22.374a1.666,1.666,0,0,0-3.331,0v4.589s0,.006,0,.009,0,.006,0,.009v4.59a1.666,1.666,0,0,0,3.331,0V28.638h4.026v2.933a1.665,1.665,0,0,0,3.331,0v-9.2A1.665,1.665,0,0,0,240.955,20.709Z" transform="translate(-231.932 -20.709)"/></g><g transform="translate(0)"><g transform="translate(0)"><path class="b" d="M121.24,55.183H100.833V27.417a1.665,1.665,0,0,0-1.665-1.665h-.174V21.725h2.013a1.665,1.665,0,0,0,1.665-1.665V12.7a1.665,1.665,0,0,0-1.665-1.665H80.6V1.665A1.665,1.665,0,0,0,78.933,0H60.539a1.665,1.665,0,0,0-1.665,1.665v9.371H38.466A1.665,1.665,0,0,0,36.8,12.7V20.06a1.665,1.665,0,0,0,1.665,1.665h2.013v4.026H40.3a1.665,1.665,0,0,0-1.665,1.665V42.133a1.665,1.665,0,1,0,3.331,0V29.083H97.5V56.844s0,0,0,0,0,0,0,0v36.78s0,0,0,0,0,0,0,0v16.725H91.635v-4.028h1.094a1.665,1.665,0,0,0,1.665-1.665V93.637a1.665,1.665,0,0,0-1.665-1.665H87.211a1.665,1.665,0,0,0-1.665,1.665v11.036a1.665,1.665,0,0,0,1.665,1.665H88.3v4.028H82.438V91.624h2.013a1.665,1.665,0,0,0,1.665-1.665V82.6a1.665,1.665,0,0,0-1.665-1.665H55.021A1.665,1.665,0,0,0,53.355,82.6v7.358a1.665,1.665,0,0,0,1.665,1.665h2.013v18.742H51.168v-4.028h1.094a1.665,1.665,0,0,0,1.665-1.665V93.637a1.665,1.665,0,0,0-1.665-1.665H46.743a1.665,1.665,0,0,0-1.665,1.665v11.036a1.665,1.665,0,0,0,1.665,1.665h1.094v4.028H41.97V48.788a1.665,1.665,0,1,0-3.331,0v6.4H18.231a1.665,1.665,0,0,0-1.665,1.665V93.637A1.665,1.665,0,0,0,18.231,95.3h2.013v16.729A1.665,1.665,0,0,0,21.91,113.7h95.651a1.665,1.665,0,0,0,1.665-1.665V95.3h2.013a1.665,1.665,0,0,0,1.665-1.665V56.848A1.665,1.665,0,0,0,121.24,55.183Zm-82.6,55.184H23.576V95.3H38.639Zm0-18.395H19.9V58.514H38.639ZM50.6,103.007H48.409V95.3H50.6Zm17.417,7.359H60.365V91.624h7.648Zm11.094,0H71.344V91.624h7.763ZM58.7,88.293H56.686V84.266h26.1v4.027H58.7Zm32.364,14.714H88.876V95.3h2.187ZM62.2,3.331H77.268V12.7s0,0,0,0,0,0,0,0v5.688H62.2ZM42.144,18.394H40.131V14.367H58.873v4.027H42.144Zm53.518,7.358H43.81V21.725H95.662Zm1.674-7.357H80.6V14.367H99.341v4.027Zm18.56,91.972H100.833V95.3H115.9Zm3.679-18.395H100.833V58.514h18.742Z" transform="translate(-16.566 0)"/></g></g><g transform="translate(7.358 62.541)"><g transform="translate(0)"><path class="b" d="M58.722,281.632H51.364A1.665,1.665,0,0,0,49.7,283.3v7.358a1.666,1.666,0,0,0,1.665,1.665h7.358a1.665,1.665,0,0,0,1.665-1.665V283.3A1.665,1.665,0,0,0,58.722,281.632Zm-1.665,7.358H53.03v-4.027h4.027Z" transform="translate(-49.699 -281.632)"/></g></g><g transform="translate(29.431 62.541)"><path class="b" d="M158.122,281.632h-7.358A1.665,1.665,0,0,0,149.1,283.3v7.358a1.665,1.665,0,0,0,1.666,1.665h7.358a1.665,1.665,0,0,0,1.665-1.665V283.3A1.665,1.665,0,0,0,158.122,281.632Zm-1.665,7.358H152.43v-4.027h4.027Z" transform="translate(-149.099 -281.632)"/></g><g transform="translate(66.22 62.541)"><path class="b" d="M323.789,281.632h-7.358a1.665,1.665,0,0,0-1.666,1.665v7.358h0a1.665,1.665,0,0,0,1.666,1.665h7.358a1.665,1.665,0,0,0,1.665-1.665V283.3A1.665,1.665,0,0,0,323.789,281.632Zm-1.665,7.358H318.1v-4.027h4.027Z" transform="translate(-314.766 -281.632)"/></g><g transform="translate(47.768 62.541)"><path class="b" d="M240.7,281.632h-7.358a1.665,1.665,0,0,0-1.665,1.665v7.358a1.665,1.665,0,0,0,1.665,1.665H240.7a1.665,1.665,0,0,0,1.665-1.665V283.3A1.665,1.665,0,0,0,240.7,281.632Zm-1.666,7.358h-4.027v-4.027h4.027Z" transform="translate(-231.675 -281.632)"/></g><g transform="translate(29.431 47.825)"><path class="b" d="M158.122,215.365h-7.358a1.665,1.665,0,0,0-1.666,1.665v7.358a1.665,1.665,0,0,0,1.666,1.665h7.358a1.665,1.665,0,0,0,1.665-1.665V217.03A1.665,1.665,0,0,0,158.122,215.365Zm-1.665,7.358H152.43V218.7h4.027Z" transform="translate(-149.099 -215.365)"/></g><g transform="translate(66.22 47.825)"><path class="b" d="M323.789,215.365h-7.358a1.665,1.665,0,0,0-1.666,1.665v7.358h0a1.665,1.665,0,0,0,1.666,1.665h7.358a1.665,1.665,0,0,0,1.665-1.665V217.03A1.665,1.665,0,0,0,323.789,215.365Zm-1.665,7.358H318.1V218.7h4.027Z" transform="translate(-314.766 -215.365)"/></g><g transform="translate(47.768 47.825)"><path class="b" d="M240.7,215.365h-7.358a1.665,1.665,0,0,0-1.665,1.665v7.358a1.665,1.665,0,0,0,1.665,1.665H240.7a1.665,1.665,0,0,0,1.665-1.665V217.03A1.665,1.665,0,0,0,240.7,215.365Zm-1.666,7.358h-4.027V218.7h4.027Z" transform="translate(-231.675 -215.365)"/></g><g transform="translate(29.431 33.109)"><path class="b" d="M158.122,149.1h-7.358a1.665,1.665,0,0,0-1.666,1.665v7.358a1.665,1.665,0,0,0,1.666,1.665h7.358a1.665,1.665,0,0,0,1.665-1.665v-7.358A1.665,1.665,0,0,0,158.122,149.1Zm-1.665,7.358H152.43v-4.027h4.027Z" transform="translate(-149.099 -149.097)"/></g><g transform="translate(66.22 33.109)"><path class="b" d="M323.79,149.1h-7.358a1.665,1.665,0,0,0-1.666,1.665v7.358a1.665,1.665,0,0,0,1.665,1.665h7.358a1.665,1.665,0,0,0,1.665-1.665v-7.358A1.665,1.665,0,0,0,323.79,149.1Zm-1.665,7.358H318.1v-4.027h4.027Z" transform="translate(-314.767 -149.097)"/></g><g transform="translate(47.768 33.109)"><path class="b" d="M240.7,149.1h-7.358a1.665,1.665,0,0,0-1.665,1.665v7.358a1.665,1.665,0,0,0,1.665,1.665H240.7a1.665,1.665,0,0,0,1.665-1.665v-7.358A1.665,1.665,0,0,0,240.7,149.1Zm-1.666,7.358h-4.027v-4.027h4.027Z" transform="translate(-231.675 -149.097)"/></g><g transform="translate(88.293 62.541)"><g transform="translate(0)"><path class="b" d="M423.19,281.632h-7.358a1.665,1.665,0,0,0-1.666,1.665v7.358a1.666,1.666,0,0,0,1.666,1.665h7.358a1.665,1.665,0,0,0,1.665-1.665V283.3A1.665,1.665,0,0,0,423.19,281.632Zm-1.665,7.358H417.5v-4.027h4.027Z" transform="translate(-414.167 -281.632)"/></g></g><g transform="translate(7.358 77.256)"><g transform="translate(0)"><path class="b" d="M58.722,347.9H51.364a1.665,1.665,0,0,0-1.665,1.665v7.358a1.665,1.665,0,0,0,1.665,1.666h7.358a1.665,1.665,0,0,0,1.665-1.666v-7.358A1.665,1.665,0,0,0,58.722,347.9Zm-1.665,7.358H53.03v-4.027h4.027Z" transform="translate(-49.699 -347.898)"/></g></g><g transform="translate(88.293 77.256)"><g transform="translate(0)"><path class="b" d="M423.19,347.9h-7.358a1.665,1.665,0,0,0-1.666,1.665v7.358a1.665,1.665,0,0,0,1.666,1.666h7.358a1.665,1.665,0,0,0,1.665-1.666v-7.358A1.665,1.665,0,0,0,423.19,347.9Zm-1.665,7.358H417.5v-4.027h4.027Z" transform="translate(-414.167 -347.898)"/></g></g></g></svg>