<svg xmlns="http://www.w3.org/2000/svg" width="123.324" height="123.436" viewBox="0 0 123.324 123.436"><defs><style>.a{opacity:0.65;}.b{fill:#212121;}</style></defs><g class="a"><g transform="translate(0 37.104)"><g transform="translate(0)"><path class="b" d="M30.5,153.9A30.3,30.3,0,0,0,.233,184.167c0,10.361,4.929,21.5,14.65,33.111,1.444,1.725,2.884,3.323,4.265,4.782C12.871,223.773,9.1,226.851,9.1,230.443c0,6.36,11.023,9.791,21.394,9.791s21.394-3.432,21.394-9.791c0-3.59-3.767-6.668-10.04-8.382a98.542,98.542,0,0,0,7.761-9.23,1.81,1.81,0,1,0-2.914-2.147,97.185,97.185,0,0,1-9.35,10.8,1.81,1.81,0,0,0-.789.783c-2.613,2.568-4.813,4.474-6.06,5.515-1.234-1.031-3.4-2.91-5.98-5.445a1.81,1.81,0,0,0-.907-.9c-8.2-8.246-19.759-22.494-19.759-37.27a26.645,26.645,0,0,1,53.289,0c0,6.416-2.186,13.345-6.5,20.594a1.81,1.81,0,1,0,3.111,1.851c4.649-7.817,7.006-15.368,7.006-22.445A30.3,30.3,0,0,0,30.5,153.9ZM29.39,231.549a1.81,1.81,0,0,0,2.216,0,91.994,91.994,0,0,0,7.278-6.473c6.1,1.245,9.387,3.642,9.387,5.368,0,1.289-1.766,2.809-4.609,3.967a36.086,36.086,0,0,1-13.165,2.2c-10.85,0-17.774-3.655-17.774-6.171,0-1.728,3.284-4.124,9.392-5.369A91.983,91.983,0,0,0,29.39,231.549Z" transform="translate(-0.233 -153.902)"/></g></g><g transform="translate(17.106 54.209)"><path class="b" d="M84.346,224.854a13.051,13.051,0,0,0-7.873,2.614,1.81,1.81,0,1,0,2.168,2.9,9.514,9.514,0,1,1-3.465,5.009,1.81,1.81,0,1,0-3.479-1,13.161,13.161,0,1,0,12.65-9.523Z" transform="translate(-71.187 -224.854)"/></g><g transform="translate(75.965 0)"><g transform="translate(0 0)"><path class="b" d="M348.508,52.586c.921-.988,1.87-2.053,2.821-3.189,7.536-9,11.357-17.653,11.357-25.717a23.683,23.683,0,0,0-45.5-9.217,1.81,1.81,0,1,0,3.334,1.41,20.063,20.063,0,0,1,38.543,7.807c0,14.958-15.7,29.288-20.06,32.975-.96-.811-2.471-2.139-4.243-3.876a1.808,1.808,0,0,0-.8-.8c-6.25-6.293-15.011-17.109-15.011-28.3a1.81,1.81,0,1,0-3.62,0c0,8.064,3.821,16.717,11.357,25.717.951,1.136,1.9,2.2,2.82,3.188-4.666,1.4-7.36,3.788-7.36,6.662,0,2.423,1.966,4.559,5.536,6.014a34.194,34.194,0,0,0,22.653,0c3.569-1.455,5.535-3.591,5.535-6.014C355.868,56.378,353.172,53.99,348.508,52.586Zm-9.5,10.984c-8.568,0-13.242-2.856-13.242-4.324,0-.956,2.126-2.706,6.666-3.671a70.724,70.724,0,0,0,5.469,4.852,1.81,1.81,0,0,0,2.216,0,70.64,70.64,0,0,0,5.468-4.852,16.592,16.592,0,0,1,5,1.81c1.042.635,1.664,1.331,1.664,1.861C352.248,60.714,347.574,63.57,339.006,63.57Z" transform="translate(-315.327 0)"/></g></g><g transform="translate(89.112 13.147)"><path class="b" d="M380.392,54.532a10.533,10.533,0,1,0,10.533,10.533A10.545,10.545,0,0,0,380.392,54.532Zm0,17.445a6.913,6.913,0,1,1,6.913-6.912A6.92,6.92,0,0,1,380.392,71.977Z" transform="translate(-369.859 -54.532)"/></g><g transform="translate(71.969 57.436)"><path class="b" d="M302.949,238.239h-.826a13.66,13.66,0,0,0-1.8.119,1.81,1.81,0,1,0,.478,3.589,10.059,10.059,0,0,1,1.321-.087h.826a1.81,1.81,0,0,0,0-3.62Z" transform="translate(-298.753 -238.239)"/></g><g transform="translate(65.98 111.743)"><path class="b" d="M278.112,463.5H278.1l-2.391.011a1.81,1.81,0,0,0,.008,3.62h.008l2.391-.011a1.81,1.81,0,0,0-.008-3.62Z" transform="translate(-273.911 -463.496)"/></g><g transform="translate(74.112 80.882)"><path class="b" d="M311.843,335.489h-2.391a1.81,1.81,0,1,0,0,3.62h2.391a1.81,1.81,0,0,0,0-3.62Z" transform="translate(-307.642 -335.489)"/></g><g transform="translate(64 60.542)"><path class="b" d="M270.42,251.7a1.811,1.811,0,0,0-2.558-.1,13.608,13.608,0,0,0-1.824,2.062,1.81,1.81,0,1,0,2.941,2.112,10,10,0,0,1,1.338-1.513A1.81,1.81,0,0,0,270.42,251.7Z" transform="translate(-265.698 -251.12)"/></g><g transform="translate(75.543 111.699)"><path class="b" d="M317.779,463.314h-.008l-2.39.011a1.81,1.81,0,0,0,.008,3.62h.008l2.39-.011a1.81,1.81,0,0,0-.008-3.62Z" transform="translate(-313.578 -463.314)"/></g><g transform="translate(56.418 111.786)"><path class="b" d="M238.447,463.675h-.008l-2.391.011a1.81,1.81,0,0,0,.008,3.62h.008l2.391-.011a1.81,1.81,0,0,0-.008-3.62Z" transform="translate(-234.246 -463.675)"/></g><g transform="translate(65.405 77.61)"><path class="b" d="M276.177,323.669a9.987,9.987,0,0,1-1.589-1.245,1.81,1.81,0,1,0-2.51,2.609,13.6,13.6,0,0,0,2.168,1.7,1.81,1.81,0,1,0,1.932-3.062Z" transform="translate(-271.523 -321.919)"/></g><g transform="translate(61.806 69.038)"><path class="b" d="M260.4,290.2a10,10,0,0,1-.183-1.908v-.1a1.81,1.81,0,0,0-1.789-1.831h-.021a1.81,1.81,0,0,0-1.81,1.789v.143a13.629,13.629,0,0,0,.25,2.6,1.81,1.81,0,0,0,3.553-.693Z" transform="translate(-256.597 -286.361)"/></g><g transform="translate(83.676 80.882)"><path class="b" d="M351.51,335.489h-2.391a1.81,1.81,0,0,0,0,3.62h2.391a1.81,1.81,0,1,0,0-3.62Z" transform="translate(-347.309 -335.489)"/></g><g transform="translate(112.022 82.848)"><path class="b" d="M469.8,345.364a17.229,17.229,0,0,0-2.216-1.486,1.81,1.81,0,0,0-1.777,3.154,13.647,13.647,0,0,1,1.749,1.173,1.81,1.81,0,0,0,2.244-2.841Z" transform="translate(-464.888 -343.645)"/></g><g transform="translate(104.232 111.433)"><path class="b" d="M438.561,463.774a1.811,1.811,0,0,0-2.041-1.545,13.615,13.615,0,0,1-1.805.128l-.339,0a1.81,1.81,0,0,0,.008,3.62h.009l.338,0a17.284,17.284,0,0,0,2.284-.161A1.81,1.81,0,0,0,438.561,463.774Z" transform="translate(-432.575 -462.211)"/></g><g transform="translate(113.235 107.344)"><path class="b" d="M474.889,445.812a1.809,1.809,0,0,0-2.559-.062,13.681,13.681,0,0,1-1.634,1.332,1.81,1.81,0,1,0,2.063,2.975,17.309,17.309,0,0,0,2.069-1.686A1.81,1.81,0,0,0,474.889,445.812Z" transform="translate(-469.918 -445.25)"/></g><g transform="translate(118.961 99.084)"><path class="b" d="M496.436,411.019a1.811,1.811,0,0,0-2.114,1.444,13.562,13.562,0,0,1-.55,2.032,1.81,1.81,0,1,0,3.41,1.216,17.168,17.168,0,0,0,.7-2.578A1.811,1.811,0,0,0,496.436,411.019Z" transform="translate(-493.667 -410.987)"/></g><g transform="translate(118.417 89.748)"><path class="b" d="M495.8,375.813a17.1,17.1,0,0,0-.937-2.5,1.81,1.81,0,1,0-3.281,1.531,13.45,13.45,0,0,1,.738,1.971,1.81,1.81,0,1,0,3.48-1Z" transform="translate(-491.412 -372.265)"/></g><g transform="translate(93.239 80.882)"><path class="b" d="M391.176,335.489h-2.391a1.81,1.81,0,1,0,0,3.62h2.391a1.81,1.81,0,0,0,0-3.62Z" transform="translate(-386.975 -335.489)"/></g><g transform="translate(85.106 111.656)"><path class="b" d="M357.444,463.134h-.008l-2.391.011a1.81,1.81,0,0,0,.008,3.62h.008l2.391-.011a1.81,1.81,0,0,0-.008-3.62Z" transform="translate(-353.243 -463.134)"/></g><g transform="translate(102.801 80.882)"><path class="b" d="M430.921,335.507c-.256-.012-.515-.017-.771-.017h-1.7a1.81,1.81,0,0,0,0,3.62h1.7q.307,0,.61.013l.081,0a1.81,1.81,0,0,0,.079-3.618Z" transform="translate(-426.64 -335.49)"/></g><g transform="translate(94.669 111.613)"><path class="b" d="M397.109,462.955H397.1l-2.391.011a1.81,1.81,0,0,0,.008,3.62h.008l2.391-.011a1.81,1.81,0,0,0-.008-3.62Z" transform="translate(-392.908 -462.955)"/></g></g></svg>