<svg xmlns="http://www.w3.org/2000/svg" width="24.13" height="24.13" viewBox="0 0 24.13 24.13"><defs><style>.a{fill:#0693b1;}</style></defs><path class="a" d="M16.589,0H7.541A7.541,7.541,0,0,0,0,7.541v9.049A7.541,7.541,0,0,0,7.541,24.13h9.049a7.541,7.541,0,0,0,7.541-7.541V7.541A7.541,7.541,0,0,0,16.589,0Zm5.278,16.589a5.284,5.284,0,0,1-5.278,5.278H7.541a5.284,5.284,0,0,1-5.278-5.278V7.541A5.284,5.284,0,0,1,7.541,2.262h9.049a5.284,5.284,0,0,1,5.278,5.278Z"/><g transform="translate(6.032 6.032)"><path class="a" d="M134.032,128a6.032,6.032,0,1,0,6.032,6.032A6.033,6.033,0,0,0,134.032,128Zm0,9.8a3.77,3.77,0,1,1,3.77-3.77A3.776,3.776,0,0,1,134.032,137.8Z" transform="translate(-128 -128)"/></g><g transform="translate(17.746 4.776)"><circle class="a" cx="0.804" cy="0.804" r="0.804"/></g></svg>