<svg xmlns="http://www.w3.org/2000/svg" width="24.053" height="24" viewBox="0 0 24.053 24"><defs><style>.a{fill:#0693b1;}</style></defs><g transform="translate(0 -0.341)"><path class="a" d="M10.144,99.73H5.315a.388.388,0,0,0-.388.388V115.63a.388.388,0,0,0,.388.388h4.829a.388.388,0,0,0,.388-.388V100.118A.388.388,0,0,0,10.144,99.73Z" transform="translate(-4.545 -91.677)"/><path class="a" d="M3.186.341A3.183,3.183,0,1,0,6.37,3.524,3.188,3.188,0,0,0,3.186.341Z"/><path class="a" d="M115.819,94.761a5.671,5.671,0,0,0-4.243,1.781V95.534a.388.388,0,0,0-.388-.388h-4.624a.388.388,0,0,0-.388.388v15.512a.388.388,0,0,0,.388.388h4.818a.388.388,0,0,0,.388-.388v-7.675c0-2.586.7-3.594,2.505-3.594,1.963,0,2.12,1.615,2.12,3.727v7.542a.388.388,0,0,0,.388.388h4.82a.388.388,0,0,0,.388-.388v-8.509C121.991,98.692,121.257,94.761,115.819,94.761Z" transform="translate(-97.938 -87.094)"/></g></svg>