<svg xmlns="http://www.w3.org/2000/svg" width="27" height="27" viewBox="0 0 27 27"><path d="M11.531,209.688H.844a.844.844,0,0,1,0-1.687H11.531a.844.844,0,1,1,0,1.688Zm0,0" transform="translate(0 -197.031)"/><path d="M123.515,138.11a.844.844,0,0,1-.6-1.441l3.623-3.622-3.623-3.621a.844.844,0,0,1,1.194-1.194l4.219,4.219a.844.844,0,0,1,0,1.194l-4.219,4.219A.842.842,0,0,1,123.515,138.11Zm0,0" transform="translate(-116.203 -121.235)"/><path d="M300.918,27.078a2.252,2.252,0,0,1-2.25-2.25V4.578a2.264,2.264,0,0,1,1.523-2.136L306.95.189a2.274,2.274,0,0,1,2.968,2.14v20.25a2.265,2.265,0,0,1-1.522,2.135l-6.761,2.255a2.354,2.354,0,0,1-.717.11Zm6.75-25.313a.662.662,0,0,0-.2.029L300.736,4.04a.58.58,0,0,0-.38.539v20.25a.593.593,0,0,0,.764.533l6.731-2.244a.582.582,0,0,0,.38-.539V2.329A.563.563,0,0,0,307.668,1.766Zm0,0" transform="translate(-282.918 -0.078)"/><path d="M171.512,5.625a.844.844,0,0,1-.844-.844V3.094A3.1,3.1,0,0,1,173.762,0h12.656a.844.844,0,0,1,0,1.688H173.762a1.408,1.408,0,0,0-1.406,1.406V4.781A.844.844,0,0,1,171.512,5.625Zm0,0" transform="translate(-161.668 0)"/><path d="M178.262,346.957h-4.5a3.1,3.1,0,0,1-3.094-3.094v-1.687a.844.844,0,0,1,1.688,0v1.688a1.408,1.408,0,0,0,1.406,1.406h4.5a.844.844,0,1,1,0,1.688Zm0,0" transform="translate(-161.668 -323.332)"/></svg>