<svg xmlns="http://www.w3.org/2000/svg" xmlns:xlink="http://www.w3.org/1999/xlink" width="192" height="192" viewBox="0 0 192 192"><defs><style>.a{fill:#fff;stroke:#707070;}.b{clip-path:url(#c);}.c{fill:#f0f0f0;}.d{fill:#d80027;}.e{fill:#0052b4;}.f{filter:url(#a);}</style><filter id="a" x="-9" y="-6" width="210" height="210" filterUnits="userSpaceOnUse"><feOffset dy="3" input="SourceAlpha"/><feGaussianBlur stdDeviation="3" result="b"/><feFlood flood-color="#0097b6"/><feComposite operator="in" in2="b"/><feComposite in="SourceGraphic"/></filter><clipPath id="c"><g class="f" transform="matrix(1, 0, 0, 1, 0, 0)"><circle class="a" cx="96" cy="96" r="96" transform="translate(4955 3445)"/></g></clipPath></defs><g class="b" transform="translate(-4955 -3445)"><g transform="translate(4907.003 3413.001)"><rect class="c" width="288" height="192" transform="translate(-0.003 31.999)"/><path class="d" d="M162,32H126v78H0v36H126v78h36V146h126V110H162Z" transform="translate(0 0)"/><g transform="translate(175.301 161.387)"><path class="e" d="M147.669,118.259,214.164,155.2V118.259Z" transform="translate(-101.47 -118.259)"/><path class="e" d="M116.87,118.259l112.694,62.607v-17.7l-80.826-44.9Z" transform="translate(-116.87 -118.259)"/><path class="e" d="M199.545,175.309,116.87,129.374v45.935Z" transform="translate(-116.87 -112.702)"/></g><path class="c" d="M116.87,118.259l112.694,62.607v-17.7l-80.826-44.9Z" transform="translate(58.431 43.128)"/><path class="d" d="M116.87,118.259l112.694,62.607v-17.7l-80.826-44.9Z" transform="translate(58.431 43.128)"/><g transform="translate(0 161.386)"><path class="e" d="M50.816,118.258,0,146.49V118.258Z" transform="translate(0 -118.258)"/><path class="e" d="M107.914,123.566v54.646H9.559Z" transform="translate(4.779 -115.605)"/></g><path class="d" d="M80.826,118.259,0,163.163v17.7H0l112.694-62.607Z" transform="translate(0 43.128)"/><g transform="translate(0 31.999)"><path class="e" d="M66.495,86.051,0,49.109V86.051Z" transform="translate(0 -23.444)"/><path class="e" d="M112.694,94.606,0,32V49.7l80.826,44.9Z" transform="translate(0 -31.999)"/><path class="e" d="M20.012,32l82.676,45.935V32Z" transform="translate(10.006 -31.999)"/></g><path class="c" d="M112.694,94.606,0,32V49.7l80.826,44.9Z" transform="translate(0 0)"/><path class="d" d="M112.694,94.606,0,32V49.7l80.826,44.9Z" transform="translate(0 0)"/><g transform="translate(175.301 31.999)"><path class="e" d="M158.122,83.149l50.816-28.231V83.149Z" transform="translate(-96.244 -20.541)"/><path class="e" d="M116.87,86.645V32h98.355Z" transform="translate(-116.87 -31.999)"/></g><path class="d" d="M148.737,94.606l80.826-44.9V32h0L116.87,94.606Z" transform="translate(58.431 0)"/></g></g></svg>