<svg xmlns="http://www.w3.org/2000/svg" width="141.905" height="87.833" viewBox="0 0 141.905 87.833"><defs><style>.a{fill:#212121;opacity:0.65;}</style></defs><path class="a" d="M140.789,107.861,71.371,88.2a1.535,1.535,0,0,0-.836,0L1.116,107.861a1.534,1.534,0,0,0-.134,2.907L34.506,123.7,33.333,133a5.631,5.631,0,0,0,2.833,5.581c6.38,3.958,26.518,13.656,32.564,15.1a9.748,9.748,0,0,0,5.263,0c6.043-1.446,26.183-11.145,32.566-15.1A5.63,5.63,0,0,0,109.393,133l-1.213-9.6,7.457-2.876v29.156a5.726,5.726,0,0,0-1.924,10.1q-.524,2.312-1.142,4.617a1.518,1.518,0,0,0-.154.562c-.8,2.913-1.711,5.806-2.729,8.648a1.533,1.533,0,0,0,1.275,2.041,56.661,56.661,0,0,0,12.415,0,1.533,1.533,0,0,0,1.275-2.041,119.083,119.083,0,0,1-4.026-13.827,5.727,5.727,0,0,0-1.923-10.1V119.336l22.22-8.569a1.534,1.534,0,0,0-.135-2.907Zm-27.564,64.906q1.039-3.055,1.915-6.166H119.2q.876,3.105,1.915,6.166A53.578,53.578,0,0,1,113.225,172.767Zm5.152-9.233h-2.414q.334-1.311.636-2.624c.188.019.378.029.57.029s.382-.01.57-.029Q118.043,162.223,118.377,163.534Zm1.465-8.335a2.672,2.672,0,1,1-2.672-2.672A2.675,2.675,0,0,1,119.842,155.2ZM105.38,125.712l-13.226,5.1a1.534,1.534,0,1,0,1.1,2.862l12.519-4.828.212,1.678-6.4,2.467a1.534,1.534,0,1,0,1.1,2.862l5.669-2.186a2.6,2.6,0,0,1-1.349,2.26l-.051.03c-6.655,4.135-26.407,13.494-31.709,14.746l-.066.017a6.685,6.685,0,0,1-3.654,0l-.066-.017c-5.3-1.254-25.055-10.613-31.707-14.747l-.051-.03a2.623,2.623,0,0,1-1.328-1.936l4.829,1.862a1.534,1.534,0,0,0,1.1-2.862L36.7,130.825l.212-1.678,11.739,4.527a1.534,1.534,0,0,0,1.1-2.862l-12.447-4.8.149-1.181L70.4,137.537a1.533,1.533,0,0,0,1.1,0l33.727-13.006Zm10.625-8.623-44.741-9.253a1.534,1.534,0,0,0-.621,3l40.076,8.288L70.953,134.463,6.375,109.56,70.953,91.274,135.53,109.56Z" transform="translate(-0.001 -88.147)"/></svg>