<svg xmlns="http://www.w3.org/2000/svg" width="118.527" height="87.013" viewBox="0 0 118.527 87.013"><defs><style>.a{opacity:0.65;}.b{fill:#212121;}</style></defs><g class="a"><g transform="translate(90.921 37.128)"><path class="b" d="M406.4,230.489c-4.033-2.016-11.6-2.04-11.915-2.04a1.736,1.736,0,1,0,0,3.473c1.951,0,7.617.3,10.362,1.673a1.736,1.736,0,0,0,1.553-3.106Z" transform="translate(-392.751 -228.449)"/></g><g transform="translate(0 0)"><g transform="translate(0 0)"><path class="b" d="M113.229,131.954l-7.171-2.049a.728.728,0,0,1-.526-.7v-2.393a13.048,13.048,0,0,0,1.66-1.361,12.773,12.773,0,0,0,3.909-9.24v-3.3l.693-1.386a11.076,11.076,0,0,0,1.163-4.928V97.649a1.736,1.736,0,0,0-1.736-1.736H94.514A11.031,11.031,0,0,0,83.5,106.931v.1a9.209,9.209,0,0,0,.967,4.1l.889,1.778v2.836A13.547,13.547,0,0,0,90.921,126.7v2.509c0,.387,0,.547-1.434.957l-3.5,1-10.121-3.68a1.734,1.734,0,0,0-.473-1.329l-3.234-3.4v-5.7c.342-.282.679-.571,1.006-.877a20.378,20.378,0,0,0,6.42-14.814V96.806a20.069,20.069,0,0,0,1.856-8.44V69.8a1.736,1.736,0,0,0-1.736-1.736H53.716A16.606,16.606,0,0,0,37.129,84.654v3.713a20.069,20.069,0,0,0,1.856,8.44v3.92a21.215,21.215,0,0,0,7.426,16.192v5.838l-3.234,3.4a1.734,1.734,0,0,0-.473,1.329l-10.683,3.884a9.1,9.1,0,0,0-2.146,1.125l-1.677-.839c4.993-2.174,6.575-5.23,6.651-5.382a1.736,1.736,0,0,0,0-1.553c-1.252-2.5-1.4-7.092-1.525-10.779-.041-1.227-.079-2.387-.152-3.419-.592-8.328-6.923-14.608-14.727-14.608s-14.135,6.28-14.727,14.608c-.073,1.033-.112,2.192-.152,3.42-.122,3.687-.274,8.275-1.525,10.778a1.736,1.736,0,0,0,0,1.553c.076.152,1.655,3.2,6.658,5.379l-4.659,2.33A7.268,7.268,0,0,0,0,140.514v12.827a1.736,1.736,0,0,0,3.472,0V140.514a3.812,3.812,0,0,1,2.119-3.428l5.8-2.9,2.018,1.918a7.3,7.3,0,0,0,10.065,0l2.018-1.918,1.892.946a9.143,9.143,0,0,0-1.4,4.848v13.363a1.736,1.736,0,1,0,3.472,0V139.979a5.707,5.707,0,0,1,3.745-5.347l11.263-4.1,4.689,7.033a3.579,3.579,0,0,0,2.635,1.582q.18.018.358.018a3.579,3.579,0,0,0,2.537-1.052l2.86-2.86v18.086a1.736,1.736,0,0,0,3.472,0V135.257l2.86,2.86a3.577,3.577,0,0,0,2.537,1.053q.178,0,.358-.018a3.58,3.58,0,0,0,2.635-1.582l4.689-7.033,11.263,4.1a5.707,5.707,0,0,1,3.745,5.347v13.363a1.736,1.736,0,1,0,3.472,0V139.979a9.178,9.178,0,0,0-2.568-6.353l.429-.122a9.523,9.523,0,0,0,1.616-.583l4.433,4.433v15.989a1.736,1.736,0,1,0,3.472,0V137.354l4.4-4.4a4.13,4.13,0,0,0,.739.293l7.171,2.049a3.85,3.85,0,0,1,2.78,3.686v14.363a1.736,1.736,0,1,0,3.473,0V138.979A7.337,7.337,0,0,0,113.229,131.954Zm-102.09-3.067a12.482,12.482,0,0,1-5.572-3.577,19.138,19.138,0,0,0,.99-4.157,12.947,12.947,0,0,0,4.583,5.654Zm9.946,4.7a3.831,3.831,0,0,1-5.281,0l-1.615-1.534a3.592,3.592,0,0,0,.422-1.7v-1.851a12.911,12.911,0,0,0,7.666,0v1.849a3.592,3.592,0,0,0,.422,1.7Zm-2.64-7.971a9.413,9.413,0,0,1-9.4-9.4A1.726,1.726,0,0,0,7.021,114.5c.005-.149.01-.3.015-.447.039-1.194.076-2.321.145-3.289a12.89,12.89,0,0,1,3.51-8.1,10.788,10.788,0,0,1,15.506,0,12.89,12.89,0,0,1,3.51,8.1c.069.967.106,2.094.145,3.288l.01.31a15.6,15.6,0,0,0-8.576-6.266,21.791,21.791,0,0,0-6.6-1.046,1.736,1.736,0,0,0-1.2.53l-3.133,3.249a1.736,1.736,0,1,0,2.5,2.41l2.607-2.7c2.245.11,9.467.95,12.276,7.135A9.38,9.38,0,0,1,18.445,125.616Zm7.3,3.277v-2.071a12.843,12.843,0,0,0,4.584-5.66,19.114,19.114,0,0,0,.989,4.148A12.541,12.541,0,0,1,25.749,128.893Zm16.708-28.167V96.418a1.737,1.737,0,0,0-.173-.755,16.654,16.654,0,0,1-1.684-7.3V84.654A13.13,13.13,0,0,1,53.716,71.539H77.97V88.367a16.654,16.654,0,0,1-1.684,7.3,1.737,1.737,0,0,0-.173.755v4.944a16.668,16.668,0,0,1-5.322,12.28,17.28,17.28,0,0,1-1.333,1.129l-.03.022a16.694,16.694,0,0,1-11.266,3.361C49.356,117.583,42.458,109.928,42.458,100.726Zm9.776,34.936a.109.109,0,0,1-.1.035.11.11,0,0,1-.088-.053l-5.4-8.1,1.738-1.826,8.192,5.6Zm7.052-6.7-9.4-6.427v-3.241a19.549,19.549,0,0,0,8.054,2.325q.687.044,1.366.044a20.111,20.111,0,0,0,9.385-2.3v3.172Zm7.237,6.682a.11.11,0,0,1-.088.053.107.107,0,0,1-.1-.035l-4.345-4.345,8.192-5.6,1.738,1.826Zm31.7-1.465-3.94-3.94a4.764,4.764,0,0,0,.107-1.031v-.733a12.173,12.173,0,0,0,3.438.607c.134,0,.266.006.4.006a12.9,12.9,0,0,0,3.828-.579v.7a4.15,4.15,0,0,0,.125,1.012Zm6.547-11.217a9.331,9.331,0,0,1-6.838,2.65,9.719,9.719,0,0,1-9.112-9.865V112.5a1.735,1.735,0,0,0-.183-.776l-1.073-2.145a5.72,5.72,0,0,1-.6-2.544v-.1a7.554,7.554,0,0,1,7.546-7.546h14.972V106.6a7.586,7.586,0,0,1-.8,3.375l-.876,1.753a1.735,1.735,0,0,0-.183.776v3.713A9.328,9.328,0,0,1,104.774,122.961Z" transform="translate(0 -68.066)"/></g></g><g transform="translate(107.629 72.401)"><path class="b" d="M466.659,380.814a1.736,1.736,0,0,0-1.736,1.736v11.139a1.736,1.736,0,1,0,3.472,0V382.55A1.736,1.736,0,0,0,466.659,380.814Z" transform="translate(-464.923 -380.814)"/></g><g transform="translate(7.426 74.696)"><g transform="translate(0 0)"><path class="b" d="M33.813,390.728a1.736,1.736,0,0,0-1.736,1.736v8.844a1.736,1.736,0,1,0,3.472,0v-8.844A1.736,1.736,0,0,0,33.813,390.728Z" transform="translate(-32.077 -390.728)"/></g></g><g transform="translate(44.554 15.774)"><g transform="translate(0 0)"><path class="b" d="M221.414,141.359c-6.567-6.567-20.306-5.311-25.909-4.467a3.564,3.564,0,0,0-3.045,3.551v4a1.736,1.736,0,1,0,3.472,0v-4a.115.115,0,0,1,.091-.117,54.851,54.851,0,0,1,11.28-.551c5.414.36,9.336,1.72,11.656,4.04a1.736,1.736,0,1,0,2.455-2.455Z" transform="translate(-192.46 -136.203)"/></g></g><g transform="translate(37.129 76.114)"><g transform="translate(0 0)"><path class="b" d="M162.12,396.853a1.736,1.736,0,0,0-1.736,1.736v7.426a1.736,1.736,0,1,0,3.472,0v-7.426A1.736,1.736,0,0,0,162.12,396.853Z" transform="translate(-160.384 -396.853)"/></g></g><g transform="translate(77.97 76.114)"><g transform="translate(0 0)"><path class="b" d="M338.542,396.853a1.736,1.736,0,0,0-1.736,1.736v7.426a1.736,1.736,0,1,0,3.472,0v-7.426A1.736,1.736,0,0,0,338.542,396.853Z" transform="translate(-336.806 -396.853)"/></g></g></g></svg>