<svg xmlns="http://www.w3.org/2000/svg" width="118.478" height="120.428" viewBox="0 0 118.478 120.428"><defs><style>.a{opacity:0.65;}.b{fill:#212121;}</style></defs><g class="a"><g transform="translate(0 0)"><path class="b" d="M119.892,41.535A59.222,59.222,0,0,0,6.856,76.918l3.83-1.2a55.21,55.21,0,1,1,6.37,13.552l-3.366,2.183a59.427,59.427,0,0,0,49.8,26.976,59.2,59.2,0,0,0,56.4-76.893Z" transform="translate(-4.147 0)"/></g><g transform="translate(22.097 18.139)"><g transform="translate(0)"><path class="b" d="M123.6,87.065l1.152-3.844L104.686,77.2a2,2,0,0,0-1.994.5l-4.012,4.012a2.006,2.006,0,0,0,.6,3.252l18.055,8.024,1.629-3.667-15.385-6.839,1.1-1.1Z" transform="translate(-98.092 -77.117)"/></g></g><g transform="translate(22.097 14.13)"><path class="b" d="M142.232,62.078a2.006,2.006,0,0,0-2.006-2.006h0a16.419,16.419,0,0,0-11.686,4.841l-17.012,17.01L104.6,80.192a2.006,2.006,0,0,0-1.906.528l-4.012,4.012a2,2,0,0,0,.385,3.138l9.6,5.761,5.762,9.6a2,2,0,0,0,1.475.959,1.964,1.964,0,0,0,.245.014,2.022,2.022,0,0,0,1.42-.586l4.012-4.012a2.011,2.011,0,0,0,.528-1.906l-1.729-6.915,17.283-17.112A16.551,16.551,0,0,0,142.232,62.078ZM116.744,88.736a2.007,2.007,0,0,0-.536,1.912l1.731,6.923-1.392,1.392-4.7-7.828a2,2,0,0,0-.688-.688l-7.828-4.7,1.392-1.392,6.923,1.731a2.006,2.006,0,0,0,1.906-.528l17.814-17.814a12.41,12.41,0,0,1,6.688-3.481,12.37,12.37,0,0,1-3.26,6.594Z" transform="translate(-98.094 -60.072)"/></g><g transform="translate(46.334 31.613)"><g transform="translate(0)"><path class="b" d="M216.94,154.725,210.922,134.4l-3.848,1.14,5.655,19.094-1.218,1.075L204.823,140.2l-3.685,1.589,7.784,18.055a2.007,2.007,0,0,0,1.4,1.164,2.055,2.055,0,0,0,.439.048,2,2,0,0,0,1.326-.5l4.253-3.751A2.008,2.008,0,0,0,216.94,154.725Z" transform="translate(-201.138 -134.403)"/></g></g><g transform="translate(0.098 48.934)"><g transform="translate(0)"><path class="b" d="M42.678,269.726c-14.288,6.771-25.5,7.645-30.744,2.4-9.1-9.1.782-35.522,22.976-61.474l-3.049-2.608C7.519,236.506-1.844,264.024,9.1,274.962c3.055,3.053,7.371,4.576,12.723,4.576,6.239,0,13.886-2.068,22.577-6.187Z" transform="translate(-4.565 -208.043)"/></g></g><g transform="translate(68.239 56.256)"><path class="b" d="M332.149,252.269a2.007,2.007,0,0,0-1.77-1.059h-6.785l-5.465-10.927a2.009,2.009,0,0,0-1.8-1.109H296.273a2.006,2.006,0,0,0-2.006,2.006v16.049a2,2,0,0,0,2.006,2.006h6.018V281.3a2,2,0,0,0,2.006,2.006h10.031a2.006,2.006,0,0,0,1.42-.59l8.024-8.024a2,2,0,0,0,.588-1.418v-7.417l7.687-11.531A2.006,2.006,0,0,0,332.149,252.269Zm-11.465,11.87a2.017,2.017,0,0,0-.337,1.113v7.194L313.5,279.3h-7.2V257.228a2,2,0,0,0-2.006-2.006h-6.018V243.186h16.816l5.465,10.927a2.008,2.008,0,0,0,1.8,1.11h4.277Z" transform="translate(-294.267 -239.173)"/></g><g transform="translate(72.252 22.152)"><path class="b" d="M346.595,124.271l-7.447-13.032a2.006,2.006,0,0,0-1.741-1.011H325.37a2.008,2.008,0,0,0-1.669.893l-3.416,5.126h-4.945V106.216H325.37a2,2,0,0,0,1.418-.588l7.437-7.437h9.2V94.179H333.394a2,2,0,0,0-1.418.588l-7.437,7.437H313.333a2.005,2.005,0,0,0-2.006,2.006v14.043a2.006,2.006,0,0,0,2.006,2.006h8.024a2.008,2.008,0,0,0,1.669-.893l3.416-5.126h9.8l7.447,13.032a2.006,2.006,0,0,0,1.741,1.011h8.024v-4.012Z" transform="translate(-311.327 -94.179)"/></g><g transform="translate(28.117 66.287)"><path class="b" d="M153.779,287.837H142.573l-5.431-5.431a2,2,0,0,0-1.418-.588H125.693a2.006,2.006,0,0,0-2.006,2.006v14.043a2.005,2.005,0,0,0,2.006,2.006h8.024v20.061a2.006,2.006,0,0,0,3.21,1.6l8.024-6.018a2.008,2.008,0,0,0,.8-1.6v-5.055l9.278-7.421a2.007,2.007,0,0,0,.752-1.567V289.844A2.006,2.006,0,0,0,153.779,287.837Zm-2.006,11.074-9.278,7.421a2.008,2.008,0,0,0-.752,1.567v5.015l-4.012,3.009V297.868a2.005,2.005,0,0,0-2.006-2.006H127.7V285.831h7.194l5.431,5.431a2,2,0,0,0,1.418.588h10.031Z" transform="translate(-123.687 -281.819)"/></g><g transform="translate(2.037 32.183)"><g transform="translate(0)"><path class="b" d="M28.57,147.829,22.552,137.8a2,2,0,0,0-1.719-.973H18.827v4.012H19.7l4.628,7.713-4.911,4.911a2,2,0,0,0-.588,1.418V160.9H12.808v4.012h8.024a2.007,2.007,0,0,0,2.006-2.006v-7.194l5.431-5.431A2.008,2.008,0,0,0,28.57,147.829Z" transform="translate(-12.808 -136.825)"/></g></g><g transform="translate(37.251 2.091)"><path class="b" d="M187.491,8.889v2.447l-6.506,1.627a2.038,2.038,0,0,0-.626.277l-5.05,3.366-11-5.5-1.8,3.589,12.037,6.018a2.006,2.006,0,0,0,2.008-.126l5.73-3.82,7.69-1.922A2.006,2.006,0,0,0,191.5,12.9V8.889Z" transform="translate(-162.519 -8.889)"/></g></g></svg>