<svg xmlns="http://www.w3.org/2000/svg" xmlns:xlink="http://www.w3.org/1999/xlink" width="84" height="86" viewBox="0 0 84 86"><defs><style>.a{fill:#fff;stroke:#707070;}.b{clip-path:url(#c);}.c{fill:#f0f0f0;}.d{fill:#d80027;}.e{fill:#0052b4;}.f{filter:url(#a);}</style><filter id="a" x="-9" y="-6" width="102" height="104" filterUnits="userSpaceOnUse"><feOffset dy="3" input="SourceAlpha"/><feGaussianBlur stdDeviation="3" result="b"/><feFlood flood-color="#0097b6"/><feComposite operator="in" in2="b"/><feComposite in="SourceGraphic"/></filter><clipPath id="c"><g class="f" transform="matrix(1, 0, 0, 1, 0, 0)"><ellipse class="a" cx="42" cy="43" rx="42" ry="43" transform="translate(0 0.15)"/></g></clipPath></defs><g class="b" transform="translate(0 -0.153)"><g transform="translate(-21.81 0)"><rect class="c" width="128" height="86" transform="translate(0.81 0.153)"/><path class="d" d="M72.174,32H56.135v34.75H0V82.788H56.135v34.75H72.174V82.788h56.135V66.749H72.174Z" transform="translate(0 -31.682)"/><g transform="translate(78.101 57.963)"><path class="e" d="M147.669,118.259l29.625,16.459V118.259Z" transform="translate(-127.087 -118.259)"/><path class="e" d="M116.869,118.259l50.208,27.893v-7.887l-36.01-20.006Z" transform="translate(-116.869 -118.259)"/><path class="e" d="M153.7,149.84l-36.834-20.465V149.84Z" transform="translate(-116.869 -121.946)"/></g><path class="c" d="M116.869,118.259l50.208,27.893v-7.887l-36.01-20.006Z" transform="translate(-38.768 -60.296)"/><path class="d" d="M116.869,118.259l50.208,27.893v-7.887l-36.01-20.006Z" transform="translate(-38.768 -60.296)"/><g transform="translate(0 57.962)"><path class="e" d="M22.64,118.258,0,130.836V118.258Z" transform="translate(0 -118.258)"/><path class="e" d="M53.379,123.566v24.346H9.559Z" transform="translate(-3.171 -120.019)"/></g><path class="d" d="M36.01,118.259,0,138.265v7.887H0l50.208-27.893Z" transform="translate(0 -60.296)"/><g transform="translate(0 0.317)"><path class="e" d="M29.625,65.568,0,49.109V65.568Z" transform="translate(0 -37.675)"/><path class="e" d="M50.208,59.892,0,32v7.887L36.01,59.892Z" transform="translate(0 -31.999)"/><path class="e" d="M20.012,32,56.846,52.464V32Z" transform="translate(-6.639 -31.999)"/></g><path class="c" d="M50.208,59.892,0,32v7.887L36.01,59.892Z" transform="translate(0 -31.682)"/><path class="d" d="M50.208,59.892,0,32v7.887L36.01,59.892Z" transform="translate(0 -31.682)"/><g transform="translate(78.101 0.317)"><path class="e" d="M158.122,67.5l22.64-12.578V67.5Z" transform="translate(-130.554 -39.602)"/><path class="e" d="M116.869,56.346V32h43.82Z" transform="translate(-116.869 -31.999)"/></g><path class="d" d="M131.067,59.892l36.01-20.006V32h0L116.869,59.892Z" transform="translate(-38.768 -31.682)"/></g></g></svg>