<svg xmlns="http://www.w3.org/2000/svg" xmlns:xlink="http://www.w3.org/1999/xlink" width="192" height="192" viewBox="0 0 192 192"><defs><style>.a{fill:#fff;stroke:#707070;}.b{clip-path:url(#a);}.c{fill:#f5f5f5;}.d{fill:#ff4b55;}.e{fill:#41479b;}</style><clipPath id="a"><circle class="a" cx="96" cy="96" r="96" transform="translate(5226 3445)"/></clipPath></defs><g class="b" transform="translate(-5226 -3445)"><g transform="translate(5184.474 3411.896)"><path class="c" d="M288,225.1H5.053A5.053,5.053,0,0,1,0,220.051V38.156A5.053,5.053,0,0,1,5.053,33.1H288a5.053,5.053,0,0,1,5.053,5.053V220.051A5.054,5.054,0,0,1,288,225.1Z" transform="translate(0 0)"/><g transform="translate(0 33.103)"><path class="d" d="M293.052,47.873H0V38.156A5.053,5.053,0,0,1,5.053,33.1H288a5.053,5.053,0,0,1,5.053,5.053v9.717Z" transform="translate(0 -33.103)"/><rect class="d" width="293.052" height="14.769" transform="translate(0 59.077)"/><rect class="d" width="293.052" height="14.769" transform="translate(0 29.537)"/><path class="d" d="M293.052,105.932h-288A5.053,5.053,0,0,1,0,100.879V91.162H293.052Z" transform="translate(0 -2.547)"/><rect class="d" width="293.052" height="14.769" transform="translate(0 147.697)"/><path class="d" d="M288,163.989H5.053A5.053,5.053,0,0,1,0,158.937V149.22H293.052v9.717A5.053,5.053,0,0,1,288,163.989Z" transform="translate(0 28.011)"/><rect class="d" width="293.052" height="14.769" transform="translate(0 118.157)"/></g><path class="e" d="M131.368,33.1H5.053A5.053,5.053,0,0,0,0,38.156v93.279a5.053,5.053,0,0,0,5.053,5.053H131.369a5.053,5.053,0,0,0,5.053-5.053V38.156A5.054,5.054,0,0,0,131.368,33.1Z" transform="translate(0 0)"/><g transform="translate(8.158 44.375)"><path class="c" d="M11.375,40.814l1.118,3.354,3.536.027a.476.476,0,0,1,.279.86l-2.844,2.1,1.067,3.371a.476.476,0,0,1-.731.531L10.924,49,8.048,51.058a.477.477,0,0,1-.731-.531l1.067-3.371-2.844-2.1a.476.476,0,0,1,.279-.86l3.536-.027,1.118-3.354A.476.476,0,0,1,11.375,40.814Z" transform="translate(-5.345 -40.488)"/><path class="c" d="M11.375,52.309l1.118,3.354,3.536.027a.476.476,0,0,1,.279.86l-2.844,2.1,1.067,3.371a.476.476,0,0,1-.731.531L10.924,60.5,8.048,62.553a.477.477,0,0,1-.731-.531l1.067-3.371-2.844-2.1a.476.476,0,0,1,.279-.86l3.536-.027,1.118-3.354A.476.476,0,0,1,11.375,52.309Z" transform="translate(-5.345 -34.438)"/><path class="c" d="M11.375,63.8l1.118,3.354,3.536.027a.476.476,0,0,1,.279.86l-2.844,2.1,1.067,3.371a.476.476,0,0,1-.731.531l-2.876-2.055L8.048,74.048a.477.477,0,0,1-.731-.531l1.067-3.371-2.844-2.1a.476.476,0,0,1,.279-.86l3.536-.027L10.472,63.8A.476.476,0,0,1,11.375,63.8Z" transform="translate(-5.345 -28.388)"/><path class="c" d="M11.375,75.3l1.118,3.354,3.536.027a.476.476,0,0,1,.279.86l-2.844,2.1,1.067,3.371a.476.476,0,0,1-.731.531l-2.876-2.055L8.048,85.544a.477.477,0,0,1-.731-.531l1.067-3.371-2.844-2.1a.476.476,0,0,1,.279-.86l3.536-.027L10.472,75.3A.476.476,0,0,1,11.375,75.3Z" transform="translate(-5.345 -22.338)"/><path class="c" d="M11.375,86.8l1.118,3.354,3.536.027a.476.476,0,0,1,.279.86l-2.844,2.1,1.067,3.371a.476.476,0,0,1-.731.531l-2.876-2.055L8.048,97.039a.477.477,0,0,1-.731-.531l1.067-3.371-2.844-2.1a.476.476,0,0,1,.279-.86l3.536-.027L10.472,86.8A.476.476,0,0,1,11.375,86.8Z" transform="translate(-5.345 -16.288)"/><path class="c" d="M20.3,46.45,21.416,49.8l3.536.027a.476.476,0,0,1,.279.86l-2.844,2.1,1.067,3.371a.476.476,0,0,1-.731.531l-2.876-2.056L16.97,56.693a.477.477,0,0,1-.731-.531l1.067-3.371-2.844-2.1a.476.476,0,0,1,.279-.86l3.536-.027,1.118-3.354A.476.476,0,0,1,20.3,46.45Z" transform="translate(-0.649 -37.522)"/><path class="c" d="M20.3,57.945,21.416,61.3l3.536.027a.476.476,0,0,1,.279.86l-2.844,2.1,1.067,3.371a.476.476,0,0,1-.731.531l-2.876-2.056L16.97,68.189a.477.477,0,0,1-.731-.531l1.067-3.371-2.844-2.1a.476.476,0,0,1,.279-.86l3.536-.027,1.118-3.354A.476.476,0,0,1,20.3,57.945Z" transform="translate(-0.649 -31.472)"/><path class="c" d="M20.3,69.441l1.118,3.354,3.536.027a.476.476,0,0,1,.279.86l-2.844,2.1,1.067,3.371a.476.476,0,0,1-.731.531l-2.876-2.056L16.97,79.684a.477.477,0,0,1-.731-.531l1.067-3.371-2.844-2.1a.476.476,0,0,1,.279-.86l3.536-.027,1.118-3.354A.476.476,0,0,1,20.3,69.441Z" transform="translate(-0.649 -25.422)"/><path class="c" d="M20.3,80.936l1.118,3.354,3.536.027a.476.476,0,0,1,.279.86l-2.844,2.1,1.067,3.371a.476.476,0,0,1-.731.531l-2.876-2.056L16.97,91.179a.477.477,0,0,1-.731-.531l1.067-3.371-2.844-2.1a.476.476,0,0,1,.279-.86l3.536-.027,1.118-3.354A.476.476,0,0,1,20.3,80.936Z" transform="translate(-0.649 -19.371)"/><path class="c" d="M29.22,40.814l1.118,3.354,3.536.027a.476.476,0,0,1,.279.86l-2.844,2.1,1.067,3.371a.476.476,0,0,1-.731.531L28.769,49l-2.876,2.056a.477.477,0,0,1-.731-.531l1.067-3.371-2.844-2.1a.476.476,0,0,1,.279-.86l3.536-.027,1.118-3.354A.476.476,0,0,1,29.22,40.814Z" transform="translate(4.047 -40.488)"/><path class="c" d="M29.22,52.309l1.118,3.354,3.536.027a.476.476,0,0,1,.279.86l-2.844,2.1,1.067,3.371a.476.476,0,0,1-.731.531L28.769,60.5l-2.876,2.056a.477.477,0,0,1-.731-.531l1.067-3.371-2.844-2.1a.476.476,0,0,1,.279-.86l3.536-.027,1.118-3.354A.476.476,0,0,1,29.22,52.309Z" transform="translate(4.047 -34.438)"/><path class="c" d="M29.22,63.8l1.118,3.354,3.536.027a.476.476,0,0,1,.279.86l-2.844,2.1,1.067,3.371a.476.476,0,0,1-.731.531l-2.876-2.056-2.876,2.056a.477.477,0,0,1-.731-.531l1.067-3.371-2.844-2.1a.476.476,0,0,1,.279-.86l3.536-.027L28.317,63.8A.476.476,0,0,1,29.22,63.8Z" transform="translate(4.047 -28.388)"/><path class="c" d="M29.22,75.3l1.118,3.354,3.536.027a.476.476,0,0,1,.279.86l-2.844,2.1,1.067,3.371a.476.476,0,0,1-.731.531l-2.876-2.056-2.876,2.056a.477.477,0,0,1-.731-.531l1.067-3.371-2.844-2.1a.476.476,0,0,1,.279-.86l3.536-.027L28.317,75.3A.476.476,0,0,1,29.22,75.3Z" transform="translate(4.047 -22.338)"/><path class="c" d="M29.22,86.8l1.118,3.354,3.536.027a.476.476,0,0,1,.279.86l-2.844,2.1,1.067,3.371a.476.476,0,0,1-.731.531l-2.876-2.056-2.876,2.056a.477.477,0,0,1-.731-.531l1.067-3.371-2.844-2.1a.476.476,0,0,1,.279-.86L27.2,90.15,28.317,86.8A.476.476,0,0,1,29.22,86.8Z" transform="translate(4.047 -16.288)"/><path class="c" d="M38.143,46.45,39.261,49.8l3.536.027a.476.476,0,0,1,.279.86l-2.844,2.1L41.3,56.162a.476.476,0,0,1-.731.531l-2.876-2.056-2.876,2.056a.477.477,0,0,1-.731-.531l1.067-3.371-2.844-2.1a.476.476,0,0,1,.279-.86l3.536-.027L37.24,46.45A.476.476,0,0,1,38.143,46.45Z" transform="translate(8.743 -37.522)"/><path class="c" d="M38.143,57.945,39.261,61.3l3.536.027a.476.476,0,0,1,.279.86l-2.844,2.1L41.3,67.657a.476.476,0,0,1-.731.531l-2.876-2.056-2.876,2.056a.477.477,0,0,1-.731-.531l1.067-3.371-2.844-2.1a.476.476,0,0,1,.279-.86l3.536-.027,1.118-3.354A.476.476,0,0,1,38.143,57.945Z" transform="translate(8.743 -31.472)"/><path class="c" d="M38.143,69.441l1.118,3.354,3.536.027a.476.476,0,0,1,.279.86l-2.844,2.1L41.3,79.153a.476.476,0,0,1-.731.531l-2.876-2.056-2.876,2.056a.477.477,0,0,1-.731-.531l1.067-3.371-2.844-2.1a.476.476,0,0,1,.279-.86l3.536-.027,1.118-3.354A.476.476,0,0,1,38.143,69.441Z" transform="translate(8.743 -25.422)"/><path class="c" d="M38.143,80.936l1.118,3.354,3.536.027a.476.476,0,0,1,.279.86l-2.844,2.1L41.3,90.648a.476.476,0,0,1-.731.531l-2.876-2.056-2.876,2.056a.477.477,0,0,1-.731-.531l1.067-3.371-2.844-2.1a.476.476,0,0,1,.279-.86l3.536-.027,1.118-3.354A.476.476,0,0,1,38.143,80.936Z" transform="translate(8.743 -19.371)"/><path class="c" d="M47.065,40.814l1.118,3.354,3.536.027a.476.476,0,0,1,.279.86l-2.844,2.1,1.067,3.371a.476.476,0,0,1-.731.531L46.613,49l-2.876,2.056a.477.477,0,0,1-.731-.531l1.067-3.371-2.844-2.1a.476.476,0,0,1,.279-.86l3.536-.027,1.118-3.354A.476.476,0,0,1,47.065,40.814Z" transform="translate(13.439 -40.488)"/><path class="c" d="M47.065,52.309l1.118,3.354,3.536.027a.476.476,0,0,1,.279.86l-2.844,2.1,1.067,3.371a.476.476,0,0,1-.731.531L46.613,60.5l-2.876,2.056a.477.477,0,0,1-.731-.531l1.067-3.371-2.844-2.1a.476.476,0,0,1,.279-.86l3.536-.027,1.118-3.354A.476.476,0,0,1,47.065,52.309Z" transform="translate(13.439 -34.438)"/><path class="c" d="M47.065,63.8l1.118,3.354,3.536.027a.476.476,0,0,1,.279.86l-2.844,2.1,1.067,3.371a.476.476,0,0,1-.731.531l-2.877-2.056-2.876,2.056a.477.477,0,0,1-.731-.531l1.067-3.371-2.844-2.1a.476.476,0,0,1,.279-.86l3.536-.027L46.162,63.8A.476.476,0,0,1,47.065,63.8Z" transform="translate(13.439 -28.388)"/><path class="c" d="M47.065,75.3l1.118,3.354,3.536.027a.476.476,0,0,1,.279.86l-2.844,2.1,1.067,3.371a.476.476,0,0,1-.731.531l-2.877-2.056-2.876,2.056a.477.477,0,0,1-.731-.531l1.067-3.371-2.844-2.1a.476.476,0,0,1,.279-.86l3.536-.027L46.162,75.3A.476.476,0,0,1,47.065,75.3Z" transform="translate(13.439 -22.338)"/><path class="c" d="M47.065,86.8l1.118,3.354,3.536.027a.476.476,0,0,1,.279.86l-2.844,2.1,1.067,3.371a.476.476,0,0,1-.731.531l-2.877-2.056-2.876,2.056a.477.477,0,0,1-.731-.531l1.067-3.371-2.844-2.1a.476.476,0,0,1,.279-.86l3.536-.027L46.162,86.8A.476.476,0,0,1,47.065,86.8Z" transform="translate(13.439 -16.288)"/><path class="c" d="M55.988,46.45,57.106,49.8l3.536.027a.476.476,0,0,1,.279.86l-2.844,2.1,1.067,3.371a.476.476,0,0,1-.731.531l-2.876-2.056L52.66,56.693a.477.477,0,0,1-.731-.531L53,52.791l-2.844-2.1a.476.476,0,0,1,.279-.86l3.536-.027,1.118-3.354A.476.476,0,0,1,55.988,46.45Z" transform="translate(18.135 -37.522)"/><path class="c" d="M55.988,57.945,57.106,61.3l3.536.027a.476.476,0,0,1,.279.86l-2.844,2.1,1.067,3.371a.476.476,0,0,1-.731.531l-2.876-2.056L52.66,68.189a.477.477,0,0,1-.731-.531L53,64.287l-2.844-2.1a.476.476,0,0,1,.279-.86l3.536-.027,1.118-3.354A.476.476,0,0,1,55.988,57.945Z" transform="translate(18.135 -31.472)"/><path class="c" d="M55.988,69.441l1.118,3.354,3.536.027a.476.476,0,0,1,.279.86l-2.844,2.1,1.067,3.371a.476.476,0,0,1-.731.531l-2.876-2.056L52.66,79.684a.477.477,0,0,1-.731-.531L53,75.782l-2.844-2.1a.476.476,0,0,1,.279-.86l3.536-.027,1.118-3.354A.476.476,0,0,1,55.988,69.441Z" transform="translate(18.135 -25.422)"/><path class="c" d="M55.988,80.936l1.118,3.354,3.536.027a.476.476,0,0,1,.279.86l-2.844,2.1,1.067,3.371a.476.476,0,0,1-.731.531l-2.876-2.056L52.66,91.179a.477.477,0,0,1-.731-.531L53,87.277l-2.844-2.1a.476.476,0,0,1,.279-.86l3.536-.027,1.118-3.354A.476.476,0,0,1,55.988,80.936Z" transform="translate(18.135 -19.371)"/><path class="c" d="M64.91,40.814l1.118,3.354,3.536.027a.476.476,0,0,1,.279.86L67,47.155l1.067,3.371a.476.476,0,0,1-.731.531L64.459,49l-2.876,2.056a.477.477,0,0,1-.731-.531l1.067-3.371-2.844-2.1a.476.476,0,0,1,.279-.86l3.536-.027,1.118-3.354A.476.476,0,0,1,64.91,40.814Z" transform="translate(22.832 -40.488)"/><path class="c" d="M64.91,52.309l1.118,3.354,3.536.027a.476.476,0,0,1,.279.86L67,58.65l1.067,3.371a.476.476,0,0,1-.731.531L64.459,60.5l-2.876,2.056a.477.477,0,0,1-.731-.531l1.067-3.371-2.844-2.1a.476.476,0,0,1,.279-.86l3.536-.027,1.118-3.354A.476.476,0,0,1,64.91,52.309Z" transform="translate(22.832 -34.438)"/><path class="c" d="M64.91,63.8l1.118,3.354,3.536.027a.476.476,0,0,1,.279.86L67,70.146l1.067,3.371a.476.476,0,0,1-.731.531l-2.876-2.056-2.876,2.056a.477.477,0,0,1-.731-.531l1.067-3.371-2.844-2.1a.476.476,0,0,1,.279-.86l3.536-.027L64.007,63.8A.476.476,0,0,1,64.91,63.8Z" transform="translate(22.832 -28.388)"/><path class="c" d="M64.91,75.3l1.118,3.354,3.536.027a.476.476,0,0,1,.279.86L67,81.641l1.067,3.371a.476.476,0,0,1-.731.531l-2.876-2.056-2.876,2.056a.477.477,0,0,1-.731-.531l1.067-3.371-2.844-2.1a.476.476,0,0,1,.279-.86l3.536-.027L64.007,75.3A.476.476,0,0,1,64.91,75.3Z" transform="translate(22.832 -22.338)"/><path class="c" d="M64.91,86.8l1.118,3.354,3.536.027a.476.476,0,0,1,.279.86L67,93.137l1.067,3.371a.476.476,0,0,1-.731.531l-2.876-2.056-2.876,2.056a.477.477,0,0,1-.731-.531l1.067-3.371-2.844-2.1a.476.476,0,0,1,.279-.86l3.536-.027L64.007,86.8A.476.476,0,0,1,64.91,86.8Z" transform="translate(22.832 -16.288)"/><path class="c" d="M73.833,46.45,74.951,49.8l3.536.027a.476.476,0,0,1,.279.86l-2.844,2.1,1.067,3.371a.476.476,0,0,1-.731.531l-2.876-2.056L70.5,56.693a.477.477,0,0,1-.731-.531l1.067-3.371L68,50.69a.476.476,0,0,1,.279-.86l3.536-.027,1.118-3.354A.476.476,0,0,1,73.833,46.45Z" transform="translate(27.528 -37.522)"/><path class="c" d="M73.833,57.945,74.951,61.3l3.536.027a.476.476,0,0,1,.279.86l-2.844,2.1,1.067,3.371a.476.476,0,0,1-.731.531l-2.876-2.056L70.5,68.189a.477.477,0,0,1-.731-.531l1.067-3.371L68,62.186a.476.476,0,0,1,.279-.86l3.536-.027,1.118-3.354A.476.476,0,0,1,73.833,57.945Z" transform="translate(27.528 -31.472)"/><path class="c" d="M73.833,69.441l1.118,3.354,3.536.027a.476.476,0,0,1,.279.86l-2.844,2.1,1.067,3.371a.476.476,0,0,1-.731.531l-2.876-2.056L70.5,79.684a.477.477,0,0,1-.731-.531l1.067-3.371L68,73.681a.476.476,0,0,1,.279-.86l3.536-.027,1.118-3.354A.476.476,0,0,1,73.833,69.441Z" transform="translate(27.528 -25.422)"/><path class="c" d="M73.833,80.936l1.118,3.354,3.536.027a.476.476,0,0,1,.279.86l-2.844,2.1,1.067,3.371a.476.476,0,0,1-.731.531l-2.876-2.056L70.5,91.179a.477.477,0,0,1-.731-.531l1.067-3.371L68,85.176a.476.476,0,0,1,.279-.86l3.536-.027,1.118-3.354A.476.476,0,0,1,73.833,80.936Z" transform="translate(27.528 -19.371)"/><path class="c" d="M82.755,40.814l1.118,3.354,3.536.027a.476.476,0,0,1,.279.86l-2.844,2.1,1.067,3.371a.476.476,0,0,1-.731.531L82.3,49l-2.876,2.056a.477.477,0,0,1-.731-.531l1.067-3.371-2.844-2.1a.476.476,0,0,1,.279-.86l3.536-.027,1.118-3.354A.476.476,0,0,1,82.755,40.814Z" transform="translate(32.224 -40.488)"/><path class="c" d="M82.755,52.309l1.118,3.354,3.536.027a.476.476,0,0,1,.279.86l-2.844,2.1,1.067,3.371a.476.476,0,0,1-.731.531L82.3,60.5l-2.876,2.056a.477.477,0,0,1-.731-.531l1.067-3.371-2.844-2.1a.476.476,0,0,1,.279-.86l3.536-.027,1.118-3.354A.476.476,0,0,1,82.755,52.309Z" transform="translate(32.224 -34.438)"/><path class="c" d="M82.755,63.8l1.118,3.354,3.536.027a.476.476,0,0,1,.279.86l-2.844,2.1,1.067,3.371a.476.476,0,0,1-.731.531L82.3,71.991l-2.876,2.056a.477.477,0,0,1-.731-.531l1.067-3.371-2.844-2.1a.476.476,0,0,1,.279-.86l3.536-.027L81.852,63.8A.476.476,0,0,1,82.755,63.8Z" transform="translate(32.224 -28.388)"/><path class="c" d="M82.755,75.3l1.118,3.354,3.536.027a.476.476,0,0,1,.279.86l-2.844,2.1,1.067,3.371a.476.476,0,0,1-.731.531L82.3,83.487l-2.876,2.056a.477.477,0,0,1-.731-.531l1.067-3.371-2.844-2.1a.476.476,0,0,1,.279-.86l3.536-.027L81.852,75.3A.476.476,0,0,1,82.755,75.3Z" transform="translate(32.224 -22.338)"/><path class="c" d="M82.755,86.8l1.118,3.354,3.536.027a.476.476,0,0,1,.279.86l-2.844,2.1,1.067,3.371a.476.476,0,0,1-.731.531L82.3,94.983l-2.876,2.056a.477.477,0,0,1-.731-.531l1.067-3.371-2.844-2.1a.476.476,0,0,1,.279-.86l3.536-.027L81.852,86.8A.476.476,0,0,1,82.755,86.8Z" transform="translate(32.224 -16.288)"/></g></g></g></svg>