<svg xmlns="http://www.w3.org/2000/svg" xmlns:xlink="http://www.w3.org/1999/xlink" width="84" height="86" viewBox="0 0 84 86"><defs><style>.a{fill:#fff;stroke:#707070;}.b{clip-path:url(#a);}.c{fill:#f5f5f5;}.d{fill:#ff4b55;}.e{fill:#41479b;}</style><clipPath id="a"><ellipse class="a" cx="42" cy="43" rx="42" ry="43" transform="translate(0.229 0.153)"/></clipPath></defs><g class="b" transform="translate(-0.229 -0.153)"><g transform="translate(-19.042 0.317)"><path class="c" d="M128.311,118.644H2.251A2.251,2.251,0,0,1,0,116.393V35.355A2.251,2.251,0,0,1,2.251,33.1h126.06a2.251,2.251,0,0,1,2.251,2.251v81.039A2.252,2.252,0,0,1,128.311,118.644Z" transform="translate(0 -33.103)"/><g transform="translate(0 0)"><path class="d" d="M130.562,39.684H0V35.355A2.251,2.251,0,0,1,2.251,33.1h126.06a2.251,2.251,0,0,1,2.251,2.251v4.329Z" transform="translate(0 -33.103)"/><rect class="d" width="130.562" height="6.58" transform="translate(0 26.32)"/><rect class="d" width="130.562" height="6.58" transform="translate(0 13.16)"/><path class="d" d="M130.562,97.742H2.251A2.251,2.251,0,0,1,0,95.491V91.162H130.562Z" transform="translate(0 -51.681)"/><rect class="d" width="130.562" height="6.58" transform="translate(0 65.803)"/><path class="d" d="M128.311,155.8H2.251A2.251,2.251,0,0,1,0,153.549V149.22H130.562v4.329A2.251,2.251,0,0,1,128.311,155.8Z" transform="translate(0 -70.259)"/><rect class="d" width="130.562" height="6.58" transform="translate(0 52.642)"/></g><path class="e" d="M58.528,33.1H2.251A2.251,2.251,0,0,0,0,35.355V76.913a2.251,2.251,0,0,0,2.251,2.251H58.528a2.251,2.251,0,0,0,2.251-2.251V35.355A2.252,2.252,0,0,0,58.528,33.1Z" transform="translate(0 -33.104)"/><g transform="translate(3.634 5.022)"><path class="c" d="M8.032,40.633l.5,1.494,1.575.012a.212.212,0,0,1,.124.383l-1.267.936.475,1.5a.212.212,0,0,1-.326.237L7.83,44.281,6.549,45.2a.212.212,0,0,1-.326-.237l.475-1.5-1.267-.936a.212.212,0,0,1,.124-.383l1.575-.012.5-1.494A.212.212,0,0,1,8.032,40.633Z" transform="translate(-5.345 -40.488)"/><path class="c" d="M8.032,52.129l.5,1.494,1.575.012a.212.212,0,0,1,.124.383l-1.267.936.475,1.5a.212.212,0,0,1-.326.237L7.83,55.777l-1.281.916a.212.212,0,0,1-.326-.237l.475-1.5-1.267-.936a.212.212,0,0,1,.124-.383l1.575-.012.5-1.494A.212.212,0,0,1,8.032,52.129Z" transform="translate(-5.345 -44.167)"/><path class="c" d="M8.032,63.624l.5,1.494,1.575.012a.212.212,0,0,1,.124.383l-1.267.936.475,1.5a.212.212,0,0,1-.326.237L7.83,67.272l-1.281.916a.212.212,0,0,1-.326-.237l.475-1.5-1.267-.936a.212.212,0,0,1,.124-.383l1.575-.012.5-1.494A.212.212,0,0,1,8.032,63.624Z" transform="translate(-5.345 -47.845)"/><path class="c" d="M8.032,75.119l.5,1.494,1.575.012a.212.212,0,0,1,.124.383l-1.267.936.475,1.5a.212.212,0,0,1-.326.237L7.83,78.767l-1.281.916a.212.212,0,0,1-.326-.237l.475-1.5-1.267-.936a.212.212,0,0,1,.124-.383l1.575-.012.5-1.494A.212.212,0,0,1,8.032,75.119Z" transform="translate(-5.345 -51.523)"/><path class="c" d="M8.032,86.615l.5,1.494,1.575.012a.212.212,0,0,1,.124.383l-1.267.936.475,1.5a.212.212,0,0,1-.326.237L7.83,90.262l-1.281.916a.212.212,0,0,1-.326-.237l.475-1.5L5.431,88.5a.212.212,0,0,1,.124-.383l1.575-.012.5-1.494A.212.212,0,0,1,8.032,86.615Z" transform="translate(-5.345 -55.202)"/><path class="c" d="M16.954,46.269l.5,1.494,1.575.012a.212.212,0,0,1,.124.383l-1.267.936.475,1.5a.212.212,0,0,1-.326.237l-1.281-.916-1.281.916a.212.212,0,0,1-.326-.237l.475-1.5-1.267-.936a.212.212,0,0,1,.124-.383l1.575-.012.5-1.494A.212.212,0,0,1,16.954,46.269Z" transform="translate(-8.2 -42.292)"/><path class="c" d="M16.954,57.765l.5,1.494,1.575.012a.212.212,0,0,1,.124.383l-1.267.936.475,1.5a.212.212,0,0,1-.326.237l-1.281-.916-1.281.916a.212.212,0,0,1-.326-.237l.475-1.5-1.267-.936a.212.212,0,0,1,.124-.383l1.575-.012.5-1.494A.212.212,0,0,1,16.954,57.765Z" transform="translate(-8.2 -45.97)"/><path class="c" d="M16.954,69.26l.5,1.494,1.575.012a.212.212,0,0,1,.124.383l-1.267.936.475,1.5a.212.212,0,0,1-.326.237l-1.281-.916-1.281.916a.212.212,0,0,1-.326-.237l.475-1.5-1.267-.936a.212.212,0,0,1,.124-.383l1.575-.012.5-1.494A.212.212,0,0,1,16.954,69.26Z" transform="translate(-8.2 -49.648)"/><path class="c" d="M16.954,80.755l.5,1.494,1.575.012a.212.212,0,0,1,.124.383l-1.267.936.475,1.5a.212.212,0,0,1-.326.237L16.753,84.4l-1.281.916a.212.212,0,0,1-.326-.237l.475-1.5-1.267-.936a.212.212,0,0,1,.124-.383l1.575-.012.5-1.494A.212.212,0,0,1,16.954,80.755Z" transform="translate(-8.2 -53.327)"/><path class="c" d="M25.876,40.633l.5,1.494,1.575.012a.212.212,0,0,1,.124.383l-1.267.936.475,1.5a.212.212,0,0,1-.326.237l-1.281-.916-1.281.916a.212.212,0,0,1-.326-.237l.475-1.5-1.267-.936a.212.212,0,0,1,.124-.383l1.575-.012.5-1.494A.212.212,0,0,1,25.876,40.633Z" transform="translate(-11.055 -40.488)"/><path class="c" d="M25.876,52.129l.5,1.494,1.575.012a.212.212,0,0,1,.124.383l-1.267.936.475,1.5a.212.212,0,0,1-.326.237l-1.281-.916-1.281.916a.212.212,0,0,1-.326-.237l.475-1.5-1.267-.936a.212.212,0,0,1,.124-.383l1.575-.012.5-1.494A.212.212,0,0,1,25.876,52.129Z" transform="translate(-11.055 -44.167)"/><path class="c" d="M25.876,63.624l.5,1.494,1.575.012a.212.212,0,0,1,.124.383l-1.267.936.475,1.5a.212.212,0,0,1-.326.237l-1.281-.916-1.281.916a.212.212,0,0,1-.326-.237l.475-1.5-1.267-.936a.212.212,0,0,1,.124-.383l1.575-.012.5-1.494A.212.212,0,0,1,25.876,63.624Z" transform="translate(-11.055 -47.845)"/><path class="c" d="M25.876,75.119l.5,1.494,1.575.012a.212.212,0,0,1,.124.383l-1.267.936.475,1.5a.212.212,0,0,1-.326.237l-1.281-.916-1.281.916a.212.212,0,0,1-.326-.237l.475-1.5-1.267-.936a.212.212,0,0,1,.124-.383l1.575-.012.5-1.494A.212.212,0,0,1,25.876,75.119Z" transform="translate(-11.055 -51.523)"/><path class="c" d="M25.876,86.615l.5,1.494,1.575.012a.212.212,0,0,1,.124.383l-1.267.936.475,1.5a.212.212,0,0,1-.326.237l-1.281-.916-1.281.916a.212.212,0,0,1-.326-.237l.475-1.5L23.276,88.5a.212.212,0,0,1,.124-.383l1.575-.012.5-1.494A.212.212,0,0,1,25.876,86.615Z" transform="translate(-11.055 -55.202)"/><path class="c" d="M34.8,46.269l.5,1.494,1.575.012a.212.212,0,0,1,.124.383l-1.267.936.475,1.5a.212.212,0,0,1-.326.237L34.6,49.917l-1.281.916a.212.212,0,0,1-.326-.237l.475-1.5L32.2,48.159a.212.212,0,0,1,.124-.383l1.575-.012.5-1.494A.212.212,0,0,1,34.8,46.269Z" transform="translate(-13.91 -42.292)"/><path class="c" d="M34.8,57.765l.5,1.494,1.575.012a.212.212,0,0,1,.124.383l-1.267.936.475,1.5a.212.212,0,0,1-.326.237L34.6,61.412l-1.281.916a.212.212,0,0,1-.326-.237l.475-1.5L32.2,59.654a.212.212,0,0,1,.124-.383l1.575-.012.5-1.494A.212.212,0,0,1,34.8,57.765Z" transform="translate(-13.91 -45.97)"/><path class="c" d="M34.8,69.26l.5,1.494,1.575.012a.212.212,0,0,1,.124.383l-1.267.936.475,1.5a.212.212,0,0,1-.326.237L34.6,72.908l-1.281.916a.212.212,0,0,1-.326-.237l.475-1.5L32.2,71.149a.212.212,0,0,1,.124-.383l1.575-.012.5-1.494A.212.212,0,0,1,34.8,69.26Z" transform="translate(-13.91 -49.648)"/><path class="c" d="M34.8,80.755l.5,1.494,1.575.012a.212.212,0,0,1,.124.383l-1.267.936.475,1.5a.212.212,0,0,1-.326.237L34.6,84.4l-1.281.916a.212.212,0,0,1-.326-.237l.475-1.5L32.2,82.645a.212.212,0,0,1,.124-.383L33.9,82.25l.5-1.494A.212.212,0,0,1,34.8,80.755Z" transform="translate(-13.91 -53.327)"/><path class="c" d="M43.721,40.633l.5,1.494,1.575.012a.212.212,0,0,1,.124.383l-1.267.936.475,1.5a.212.212,0,0,1-.326.237l-1.282-.916-1.281.916a.212.212,0,0,1-.326-.237l.475-1.5-1.267-.936a.212.212,0,0,1,.124-.383l1.575-.012.5-1.494A.212.212,0,0,1,43.721,40.633Z" transform="translate(-16.765 -40.488)"/><path class="c" d="M43.721,52.129l.5,1.494,1.575.012a.212.212,0,0,1,.124.383l-1.267.936.475,1.5a.212.212,0,0,1-.326.237l-1.282-.916-1.281.916a.212.212,0,0,1-.326-.237l.475-1.5-1.267-.936a.212.212,0,0,1,.124-.383l1.575-.012.5-1.494A.212.212,0,0,1,43.721,52.129Z" transform="translate(-16.765 -44.167)"/><path class="c" d="M43.721,63.624l.5,1.494,1.575.012a.212.212,0,0,1,.124.383l-1.267.936.475,1.5a.212.212,0,0,1-.326.237l-1.282-.916-1.281.916a.212.212,0,0,1-.326-.237l.475-1.5-1.267-.936a.212.212,0,0,1,.124-.383l1.575-.012.5-1.494A.212.212,0,0,1,43.721,63.624Z" transform="translate(-16.765 -47.845)"/><path class="c" d="M43.721,75.119l.5,1.494,1.575.012a.212.212,0,0,1,.124.383l-1.267.936.475,1.5a.212.212,0,0,1-.326.237l-1.282-.916-1.281.916a.212.212,0,0,1-.326-.237l.475-1.5-1.267-.936a.212.212,0,0,1,.124-.383l1.575-.012.5-1.494A.212.212,0,0,1,43.721,75.119Z" transform="translate(-16.765 -51.523)"/><path class="c" d="M43.721,86.615l.5,1.494,1.575.012a.212.212,0,0,1,.124.383l-1.267.936.475,1.5a.212.212,0,0,1-.326.237l-1.282-.916-1.281.916a.212.212,0,0,1-.326-.237l.475-1.5L41.121,88.5a.212.212,0,0,1,.124-.383l1.575-.012.5-1.494A.212.212,0,0,1,43.721,86.615Z" transform="translate(-16.765 -55.202)"/><path class="c" d="M52.644,46.269l.5,1.494,1.575.012a.212.212,0,0,1,.124.383l-1.267.936.475,1.5a.212.212,0,0,1-.326.237l-1.281-.916-1.281.916a.212.212,0,0,1-.326-.237l.475-1.5-1.267-.936a.212.212,0,0,1,.124-.383l1.575-.012.5-1.494A.212.212,0,0,1,52.644,46.269Z" transform="translate(-19.62 -42.292)"/><path class="c" d="M52.644,57.765l.5,1.494,1.575.012a.212.212,0,0,1,.124.383l-1.267.936.475,1.5a.212.212,0,0,1-.326.237l-1.281-.916-1.281.916a.212.212,0,0,1-.326-.237l.475-1.5-1.267-.936a.212.212,0,0,1,.124-.383l1.575-.012.5-1.494A.212.212,0,0,1,52.644,57.765Z" transform="translate(-19.62 -45.97)"/><path class="c" d="M52.644,69.26l.5,1.494,1.575.012a.212.212,0,0,1,.124.383l-1.267.936.475,1.5a.212.212,0,0,1-.326.237l-1.281-.916-1.281.916a.212.212,0,0,1-.326-.237l.475-1.5-1.267-.936a.212.212,0,0,1,.124-.383l1.575-.012.5-1.494A.212.212,0,0,1,52.644,69.26Z" transform="translate(-19.62 -49.648)"/><path class="c" d="M52.644,80.755l.5,1.494,1.575.012a.212.212,0,0,1,.124.383l-1.267.936.475,1.5a.212.212,0,0,1-.326.237L52.443,84.4l-1.281.916a.212.212,0,0,1-.326-.237l.475-1.5-1.267-.936a.212.212,0,0,1,.124-.383l1.575-.012.5-1.494A.212.212,0,0,1,52.644,80.755Z" transform="translate(-19.62 -53.327)"/><path class="c" d="M61.566,40.633l.5,1.494,1.575.012a.212.212,0,0,1,.124.383l-1.267.936.475,1.5a.212.212,0,0,1-.326.237l-1.281-.916-1.281.916a.212.212,0,0,1-.326-.237l.475-1.5-1.267-.936a.212.212,0,0,1,.124-.383l1.575-.012.5-1.494A.212.212,0,0,1,61.566,40.633Z" transform="translate(-22.475 -40.488)"/><path class="c" d="M61.566,52.129l.5,1.494,1.575.012a.212.212,0,0,1,.124.383l-1.267.936.475,1.5a.212.212,0,0,1-.326.237l-1.281-.916-1.281.916a.212.212,0,0,1-.326-.237l.475-1.5-1.267-.936a.212.212,0,0,1,.124-.383l1.575-.012.5-1.494A.212.212,0,0,1,61.566,52.129Z" transform="translate(-22.475 -44.167)"/><path class="c" d="M61.566,63.624l.5,1.494,1.575.012a.212.212,0,0,1,.124.383l-1.267.936.475,1.5a.212.212,0,0,1-.326.237l-1.281-.916-1.281.916a.212.212,0,0,1-.326-.237l.475-1.5-1.267-.936a.212.212,0,0,1,.124-.383l1.575-.012.5-1.494A.212.212,0,0,1,61.566,63.624Z" transform="translate(-22.475 -47.845)"/><path class="c" d="M61.566,75.119l.5,1.494,1.575.012a.212.212,0,0,1,.124.383l-1.267.936.475,1.5a.212.212,0,0,1-.326.237l-1.281-.916-1.281.916a.212.212,0,0,1-.326-.237l.475-1.5-1.267-.936a.212.212,0,0,1,.124-.383l1.575-.012.5-1.494A.212.212,0,0,1,61.566,75.119Z" transform="translate(-22.475 -51.523)"/><path class="c" d="M61.566,86.615l.5,1.494,1.575.012a.212.212,0,0,1,.124.383L62.5,89.44l.475,1.5a.212.212,0,0,1-.326.237l-1.281-.916-1.281.916a.212.212,0,0,1-.326-.237l.475-1.5L58.966,88.5a.212.212,0,0,1,.124-.383l1.575-.012.5-1.494A.212.212,0,0,1,61.566,86.615Z" transform="translate(-22.475 -55.202)"/><path class="c" d="M70.489,46.269l.5,1.494,1.575.012a.212.212,0,0,1,.124.383l-1.267.936.475,1.5a.212.212,0,0,1-.326.237l-1.281-.916-1.281.916a.212.212,0,0,1-.326-.237l.475-1.5-1.267-.936a.212.212,0,0,1,.124-.383l1.575-.012.5-1.494A.212.212,0,0,1,70.489,46.269Z" transform="translate(-25.33 -42.292)"/><path class="c" d="M70.489,57.765l.5,1.494,1.575.012a.212.212,0,0,1,.124.383l-1.267.936.475,1.5a.212.212,0,0,1-.326.237l-1.281-.916-1.281.916a.212.212,0,0,1-.326-.237l.475-1.5-1.267-.936a.212.212,0,0,1,.124-.383l1.575-.012.5-1.494A.212.212,0,0,1,70.489,57.765Z" transform="translate(-25.33 -45.97)"/><path class="c" d="M70.489,69.26l.5,1.494,1.575.012a.212.212,0,0,1,.124.383l-1.267.936.475,1.5a.212.212,0,0,1-.326.237l-1.281-.916-1.281.916a.212.212,0,0,1-.326-.237l.475-1.5-1.267-.936a.212.212,0,0,1,.124-.383l1.575-.012.5-1.494A.212.212,0,0,1,70.489,69.26Z" transform="translate(-25.33 -49.648)"/><path class="c" d="M70.489,80.755l.5,1.494,1.575.012a.212.212,0,0,1,.124.383l-1.267.936.475,1.5a.212.212,0,0,1-.326.237L70.288,84.4l-1.281.916a.212.212,0,0,1-.326-.237l.475-1.5-1.267-.936a.212.212,0,0,1,.124-.383l1.575-.012.5-1.494A.212.212,0,0,1,70.489,80.755Z" transform="translate(-25.33 -53.327)"/><path class="c" d="M79.412,40.633l.5,1.494,1.575.012a.212.212,0,0,1,.124.383l-1.267.936.475,1.5a.212.212,0,0,1-.326.237l-1.281-.916-1.281.916a.212.212,0,0,1-.326-.237l.475-1.5-1.267-.936a.212.212,0,0,1,.124-.383l1.575-.012.5-1.494A.212.212,0,0,1,79.412,40.633Z" transform="translate(-28.185 -40.488)"/><path class="c" d="M79.412,52.129l.5,1.494,1.575.012a.212.212,0,0,1,.124.383l-1.267.936.475,1.5a.212.212,0,0,1-.326.237l-1.281-.916-1.281.916a.212.212,0,0,1-.326-.237l.475-1.5-1.267-.936a.212.212,0,0,1,.124-.383l1.575-.012.5-1.494A.212.212,0,0,1,79.412,52.129Z" transform="translate(-28.185 -44.167)"/><path class="c" d="M79.412,63.624l.5,1.494,1.575.012a.212.212,0,0,1,.124.383l-1.267.936.475,1.5a.212.212,0,0,1-.326.237l-1.281-.916-1.281.916a.212.212,0,0,1-.326-.237l.475-1.5-1.267-.936a.212.212,0,0,1,.124-.383l1.575-.012.5-1.494A.212.212,0,0,1,79.412,63.624Z" transform="translate(-28.185 -47.845)"/><path class="c" d="M79.412,75.119l.5,1.494,1.575.012a.212.212,0,0,1,.124.383l-1.267.936.475,1.5a.212.212,0,0,1-.326.237l-1.281-.916-1.281.916a.212.212,0,0,1-.326-.237l.475-1.5-1.267-.936a.212.212,0,0,1,.124-.383l1.575-.012.5-1.494A.212.212,0,0,1,79.412,75.119Z" transform="translate(-28.185 -51.523)"/><path class="c" d="M79.412,86.615l.5,1.494,1.575.012a.212.212,0,0,1,.124.383l-1.267.936.475,1.5a.212.212,0,0,1-.326.237l-1.281-.916-1.281.916a.212.212,0,0,1-.326-.237l.475-1.5L76.811,88.5a.212.212,0,0,1,.124-.383l1.575-.012.5-1.494A.212.212,0,0,1,79.412,86.615Z" transform="translate(-28.185 -55.202)"/></g></g></g></svg>