<svg xmlns="http://www.w3.org/2000/svg" width="84.429" height="117.942" viewBox="0 0 84.429 117.942"><defs><style>.a{fill:#0097b6;}</style></defs><path class="a" d="M153.2,0H94.694a4.1,4.1,0,0,0-4.028,4.258v10.11a1.726,1.726,0,1,0,3.453,0V4.258c0-.372.151-.806.575-.806H153.2a.576.576,0,0,1,.575.575V44.392H139.359V29.732a4.033,4.033,0,0,0-4.028-4.028H94.118V22.955a1.726,1.726,0,1,0-3.453,0V25.7H76.826A4.033,4.033,0,0,0,72.8,29.732v84.181a4.033,4.033,0,0,0,4.028,4.028h6.267a1.726,1.726,0,0,0,0-3.453H76.826a.576.576,0,0,1-.575-.575V29.732a.576.576,0,0,1,.575-.575h58.505a.576.576,0,0,1,.575.575V70.871a1.726,1.726,0,1,0,3.453,0V47.845h14.415V88.209a.576.576,0,0,1-.575.575H139.359V79.427a1.726,1.726,0,0,0-3.453,0v34.486a.576.576,0,0,1-.575.575H91.53a1.726,1.726,0,0,0,0,3.453h43.8a4.033,4.033,0,0,0,4.028-4.028V92.237H153.2a4.033,4.033,0,0,0,4.028-4.028V4.028A4.033,4.033,0,0,0,153.2,0Z" transform="translate(-72.798)"/><path class="a" d="M141.664,173.3a22.64,22.64,0,1,0,22.641,22.64,22.666,22.666,0,0,0-22.641-22.64Zm19.107,20.914h-6.126c-.4-7.9-3.486-13.1-6.467-16.321A19.231,19.231,0,0,1,160.77,194.219Zm-20.833-16.027v16.027h-7.674C132.766,185.313,137.086,180.452,139.937,178.193Zm0,19.479V213.7c-2.85-2.258-7.171-7.119-7.674-16.027Zm3.453,16.069V197.672h7.793C150.675,206.669,146.269,211.514,143.39,213.741Zm0-19.522V178.15c2.879,2.226,7.285,7.071,7.793,16.069Zm-8.116-16.363a25.337,25.337,0,0,0-6.472,16.363h-6.245A19.229,19.229,0,0,1,135.274,177.856Zm-12.717,19.816H128.8a25.337,25.337,0,0,0,6.472,16.364A19.229,19.229,0,0,1,122.557,197.672Zm25.619,16.322c2.981-3.22,6.07-8.421,6.468-16.322h6.126A19.232,19.232,0,0,1,148.176,213.994Z" transform="translate(-108.383 -133.414)"/><path class="a" d="M167.8,443.351a1.726,1.726,0,1,0,0,3.453h20.167a1.726,1.726,0,1,0,0-3.453Z" transform="translate(-144.606 -341.302)"/><path class="a" d="M179.229,406.815a1.726,1.726,0,0,0-1.726-1.726h-29.1a1.726,1.726,0,1,0,0,3.453h29.1A1.726,1.726,0,0,0,179.229,406.815Z" transform="translate(-129.674 -311.847)"/></svg>